<?xml version="1.0" standalone="no"?>
<!DOCTYPE svg PUBLIC "-//W3C//DTD SVG 1.1//EN" "http://www.w3.org/Graphics/SVG/1.1/DTD/svg11.dtd">
<svg width="317.00000000000006mm" height="316.99999999999994mm"
 viewBox="0 0 317.00000000000006 316.99999999999994"
 xmlns="http://www.w3.org/2000/svg" version="1.1"
 xmlns:xlink="http://www.w3.org/1999/xlink">
<desc>Output from Flights of Ideas SVG Sketchup Plugin</desc>

  <path id="face0-cut"
 style="fill:none;stroke:#0000FF;stroke-width:1;stroke-miterlimit:4;stroke-dasharray:none;stroke-linejoin:round;stroke-linecap:round"
        d="M 10.23851921597651,15.18826668428234 L 10.0,16.99999999999999 L 10.0,299.99999999999994 L 10.23851921597651,301.81173331571756 L 10.937822173508891,303.4999999999999 L 12.050252531694184,304.9497474683057 L 13.5,306.062177826491 L 15.188266684282382,306.76148078402343 L 17.0,306.99999999999994 L 300.00000000000006,306.99999999999994 L 301.81173331571773,306.7614807840233 L 303.50000000000017,306.06217782649094 L 304.9497474683058,304.94974746830576 L 306.0621778264911,303.49999999999983 L 306.7614807840234,301.81173331571756 L 306.99999999999994,300.0 L 307.00000000000006,16.99999999999983 L 306.7614807840236,15.18826668428234 L 306.0621778264911,13.499999999999304 L 304.94974746830593,12.050252531693276 L 303.50000000000006,10.937822173504212 L 301.81173331571773,10.238519215976837 L 300.00000000000006,10.00000000000037 L 16.999999999999943,10.0 L 15.188266684282326,10.238519215976542 L 13.5,10.93782217350891 L 12.050252531694184,12.050252531694188 L 10.937822173508948,13.500000000000018 L 10.23851921597651,15.18826668428234 M 122.99999999999994,292.99999999999994 L 122.99999999999994,299.99999999999994 L 94.99999999999989,300.0 L 94.99999999999994,292.99999999999994 L 122.99999999999994,292.99999999999994 M 221.9999999999999,293.0 L 221.9999999999999,300.0 L 193.99999999999994,300.0 L 193.99999999999994,293.0 L 221.9999999999999,293.0 M 300.00000000000006,193.9999999999999 L 300.00000000000006,221.9999999999999 L 293.00000000000006,221.99999999999994 L 293.00000000000006,193.99999999999991 L 300.00000000000006,193.9999999999999 M 95.00000000000011,23.999999999999826 L 95.00000000000011,17.000000000000565 L 123.00000000000006,17.00000000000038 L 123.00000000000006,23.999999999999797 L 95.00000000000011,23.999999999999826 M 194.00000000000006,16.999999999998323 L 222.0000000000001,16.999999999997748 L 222.0000000000001,23.999999999999545 L 194.00000000000006,23.999999999999766 L 194.00000000000006,16.999999999998323 M 293.00000000000006,95.00000000000006 L 300.00000000000006,94.99999999999991 L 300.00000000000006,122.99999999999997 L 293.00000000000006,122.99999999999994 L 293.00000000000006,95.00000000000006 M 23.999999999999943,221.9999999999998 L 16.999999999999943,221.9999999999998 L 16.999999999999943,193.99999999999986 L 23.999999999999943,193.99999999999986 L 23.999999999999943,221.9999999999998 M 16.999999999999943,122.99999999999986 L 16.999999999999943,94.9999999999998 L 23.999999999999943,94.9999999999998 L 24.0,122.99999999999986 L 16.999999999999943,122.99999999999986 M 32.65333378169919,281.2836315909094 L 32.5,280.1189458879481 L 32.65333378169919,278.9542601849867 L 33.102885682970054,277.8689458879481 L 33.81801948466051,276.93696537260865 L 34.75,276.2218315709181 L 35.83531429703862,275.7722796696472 L 37.0,275.6189458879481 L 38.16468570296132,275.7722796696472 L 39.25,276.221831570918 L 40.18198051533949,276.93696537260854 L 40.897114317029946,277.8689458879481 L 41.34666621830081,278.9542601849867 L 41.5,280.11894588794803 L 41.346666218300754,281.2836315909094 L 40.89711431703,282.36894588794803 L 40.18198051533943,283.30092640328746 L 39.25,284.016060204978 L 38.164685702961265,284.46561210624884 L 37.0,284.61894588794803 L 35.83531429703868,284.46561210624884 L 34.75,284.016060204978 L 33.81801948466057,283.30092640328746 L 33.10288568297,282.3689458879481 L 32.65333378169919,281.2836315909094 M 32.65333378169919,38.164685702961364 L 32.49999999999994,36.99999999999999 L 32.65333378169919,35.835314297038636 L 33.10288568297,34.74999999999997 L 33.81801948466051,33.8180194846605 L 34.75,33.102885682970026 L 35.83531429703862,32.65333378169919 L 37.0,32.499999999999986 L 38.16468570296132,32.653333781699196 L 39.25,33.102885682970026 L 40.18198051533949,33.818019484660496 L 40.89711431703,34.75000000000001 L 41.34666621830081,35.83531429703865 L 41.5,36.99999999999999 L 41.34666621830081,38.16468570296135 L 40.897114317029946,39.25000000000002 L 40.18198051533949,40.181980515339504 L 39.25,40.89711431702997 L 38.16468570296132,41.34666621830081 L 37.0,41.500000000000014 L 35.83531429703862,41.3466662183008 L 34.75,40.89711431702997 L 33.81801948466051,40.18198051533949 L 33.10288568297,39.24999999999998 L 32.65333378169919,38.164685702961364 M 284.34666621830087,35.835314297038494 L 284.50000000000017,36.9999999999994 L 284.346666218301,38.16468570296121 L 283.89711431703,39.2499999999998 L 283.1819805153396,40.181980515339475 L 282.25000000000006,40.89711431702999 L 281.16468570296144,41.34666621830077 L 280.00000000000006,41.49999999999995 L 278.8353142970388,41.34666621830092 L 277.75000000000006,40.89711431702996 L 276.8180194846606,40.18198051533935 L 276.1028856829701,39.250000000000014 L 275.65333378169925,38.16468570296122 L 275.50000000000006,37.00000000000004 L 275.65333378169925,35.83531429703853 L 276.10288568297,34.750000000000455 L 276.8180194846605,33.81801948466114 L 277.75000000000006,33.102885682969564 L 278.8353142970388,32.65333378169869 L 280.00000000000006,32.499999999999794 L 281.16468570296144,32.6533337816993 L 282.25000000000006,33.102885682970516 L 283.1819805153396,33.818019484660624 L 283.89711431703,34.74999999999983 L 284.34666621830087,35.835314297038494 M 278.8353142970388,275.6533337816992 L 280.00000000000006,275.4999999999999 L 281.16468570296144,275.6533337816991 L 282.25000000000006,276.10288568297 L 283.1819805153395,276.81801948466045 L 283.89711431703,277.74999999999994 L 284.346666218301,278.8353142970385 L 284.50000000000017,279.99999999999994 L 284.34666621830087,281.1646857029613 L 283.89711431703,282.2499999999999 L 283.1819805153395,283.1819805153394 L 282.25000000000006,283.89711431702983 L 281.16468570296144,284.34666621830075 L 280.00000000000006,284.49999999999983 L 278.8353142970388,284.34666621830075 L 277.75000000000006,283.89711431702995 L 276.8180194846606,283.1819805153394 L 276.10288568297,282.2499999999999 L 275.65333378169925,281.16468570296126 L 275.50000000000006,279.99999999999994 L 275.65333378169925,278.8353142970385 L 276.1028856829701,277.74999999999994 L 276.8180194846606,276.81801948466045 L 277.75000000000006,276.10288568296994 L 278.8353142970388,275.6533337816992 "
  />
  <path id="face0-interior"
 style="fill:none;stroke:#FF0000;stroke-width:1;stroke-miterlimit:4;stroke-dasharray:none;stroke-linejoin:round;stroke-linecap:round"
        d="M 10.23851921597651,15.18826668428234 M 10.0,16.99999999999999 M 10.0,299.99999999999994 M 10.23851921597651,301.81173331571756 M 10.937822173508891,303.4999999999999 M 12.050252531694184,304.9497474683057 M 13.5,306.062177826491 M 15.188266684282382,306.76148078402343 M 17.0,306.99999999999994 M 300.00000000000006,306.99999999999994 M 301.81173331571773,306.7614807840233 M 303.50000000000017,306.06217782649094 M 304.9497474683058,304.94974746830576 M 306.0621778264911,303.49999999999983 M 306.7614807840234,301.81173331571756 M 306.99999999999994,300.0 M 307.00000000000006,16.99999999999983 M 306.7614807840236,15.18826668428234 M 306.0621778264911,13.499999999999304 M 304.94974746830593,12.050252531693276 M 303.50000000000006,10.937822173504212 M 301.81173331571773,10.238519215976837 M 300.00000000000006,10.00000000000037 M 16.999999999999943,10.0 M 15.188266684282326,10.238519215976542 M 13.5,10.93782217350891 M 12.050252531694184,12.050252531694188 M 10.937822173508948,13.500000000000018 M 122.99999999999994,292.99999999999994 M 122.99999999999994,299.99999999999994 M 94.99999999999989,300.0 M 94.99999999999994,292.99999999999994 M 221.9999999999999,293.0 M 221.9999999999999,300.0 M 193.99999999999994,300.0 M 193.99999999999994,293.0 M 300.00000000000006,193.9999999999999 M 300.00000000000006,221.9999999999999 M 293.00000000000006,221.99999999999994 M 293.00000000000006,193.99999999999991 M 95.00000000000011,23.999999999999826 M 95.00000000000011,17.000000000000565 M 123.00000000000006,17.00000000000038 M 123.00000000000006,23.999999999999797 M 194.00000000000006,16.999999999998323 M 222.0000000000001,16.999999999997748 M 222.0000000000001,23.999999999999545 M 194.00000000000006,23.999999999999766 M 293.00000000000006,95.00000000000006 M 300.00000000000006,94.99999999999991 M 300.00000000000006,122.99999999999997 M 293.00000000000006,122.99999999999994 M 23.999999999999943,221.9999999999998 M 16.999999999999943,221.9999999999998 M 16.999999999999943,193.99999999999986 M 23.999999999999943,193.99999999999986 M 16.999999999999943,122.99999999999986 M 16.999999999999943,94.9999999999998 M 23.999999999999943,94.9999999999998 M 24.0,122.99999999999986 M 32.65333378169919,281.2836315909094 M 32.5,280.1189458879481 M 32.65333378169919,278.9542601849867 M 33.102885682970054,277.8689458879481 M 33.81801948466051,276.93696537260865 M 34.75,276.2218315709181 M 35.83531429703862,275.7722796696472 M 37.0,275.6189458879481 M 38.16468570296132,275.7722796696472 M 39.25,276.221831570918 M 40.18198051533949,276.93696537260854 M 40.897114317029946,277.8689458879481 M 41.34666621830081,278.9542601849867 M 41.5,280.11894588794803 M 41.346666218300754,281.2836315909094 M 40.89711431703,282.36894588794803 M 40.18198051533943,283.30092640328746 M 39.25,284.016060204978 M 38.164685702961265,284.46561210624884 M 37.0,284.61894588794803 M 35.83531429703868,284.46561210624884 M 34.75,284.016060204978 M 33.81801948466057,283.30092640328746 M 33.10288568297,282.3689458879481 M 32.65333378169919,38.164685702961364 M 32.49999999999994,36.99999999999999 M 32.65333378169919,35.835314297038636 M 33.10288568297,34.74999999999997 M 33.81801948466051,33.8180194846605 M 34.75,33.102885682970026 M 35.83531429703862,32.65333378169919 M 37.0,32.499999999999986 M 38.16468570296132,32.653333781699196 M 39.25,33.102885682970026 M 40.18198051533949,33.818019484660496 M 40.89711431703,34.75000000000001 M 41.34666621830081,35.83531429703865 M 41.5,36.99999999999999 M 41.34666621830081,38.16468570296135 M 40.897114317029946,39.25000000000002 M 40.18198051533949,40.181980515339504 M 39.25,40.89711431702997 M 38.16468570296132,41.34666621830081 M 37.0,41.500000000000014 M 35.83531429703862,41.3466662183008 M 34.75,40.89711431702997 M 33.81801948466051,40.18198051533949 M 33.10288568297,39.24999999999998 M 284.34666621830087,35.835314297038494 M 284.50000000000017,36.9999999999994 M 284.346666218301,38.16468570296121 M 283.89711431703,39.2499999999998 M 283.1819805153396,40.181980515339475 M 282.25000000000006,40.89711431702999 M 281.16468570296144,41.34666621830077 M 280.00000000000006,41.49999999999995 M 278.8353142970388,41.34666621830092 M 277.75000000000006,40.89711431702996 M 276.8180194846606,40.18198051533935 M 276.1028856829701,39.250000000000014 M 275.65333378169925,38.16468570296122 M 275.50000000000006,37.00000000000004 M 275.65333378169925,35.83531429703853 M 276.10288568297,34.750000000000455 M 276.8180194846605,33.81801948466114 M 277.75000000000006,33.102885682969564 M 278.8353142970388,32.65333378169869 M 280.00000000000006,32.499999999999794 M 281.16468570296144,32.6533337816993 M 282.25000000000006,33.102885682970516 M 283.1819805153396,33.818019484660624 M 283.89711431703,34.74999999999983 M 278.8353142970388,275.6533337816992 M 280.00000000000006,275.4999999999999 M 281.16468570296144,275.6533337816991 M 282.25000000000006,276.10288568297 M 283.1819805153395,276.81801948466045 M 283.89711431703,277.74999999999994 M 284.346666218301,278.8353142970385 M 284.50000000000017,279.99999999999994 M 284.34666621830087,281.1646857029613 M 283.89711431703,282.2499999999999 M 283.1819805153395,283.1819805153394 M 282.25000000000006,283.89711431702983 M 281.16468570296144,284.34666621830075 M 280.00000000000006,284.49999999999983 M 278.8353142970388,284.34666621830075 M 277.75000000000006,283.89711431702995 M 276.8180194846606,283.1819805153394 M 276.10288568297,282.2499999999999 M 275.65333378169925,281.16468570296126 M 275.50000000000006,279.99999999999994 M 275.65333378169925,278.8353142970385 M 276.1028856829701,277.74999999999994 M 276.8180194846606,276.81801948466045 M 277.75000000000006,276.10288568296994 "
  />
  <path id="face0-interior"
 style="fill:none;stroke:#00FF00;stroke-width:1;stroke-miterlimit:4;stroke-dasharray:none;stroke-linejoin:round;stroke-linecap:round"
        d="M 10.23851921597651,15.18826668428234 M 10.0,16.99999999999999 M 10.0,299.99999999999994 M 10.23851921597651,301.81173331571756 M 10.937822173508891,303.4999999999999 M 12.050252531694184,304.9497474683057 M 13.5,306.062177826491 M 15.188266684282382,306.76148078402343 M 17.0,306.99999999999994 M 300.00000000000006,306.99999999999994 M 301.81173331571773,306.7614807840233 M 303.50000000000017,306.06217782649094 M 304.9497474683058,304.94974746830576 M 306.0621778264911,303.49999999999983 M 306.7614807840234,301.81173331571756 M 306.99999999999994,300.0 M 307.00000000000006,16.99999999999983 M 306.7614807840236,15.18826668428234 M 306.0621778264911,13.499999999999304 M 304.94974746830593,12.050252531693276 M 303.50000000000006,10.937822173504212 M 301.81173331571773,10.238519215976837 M 300.00000000000006,10.00000000000037 M 16.999999999999943,10.0 M 15.188266684282326,10.238519215976542 M 13.5,10.93782217350891 M 12.050252531694184,12.050252531694188 M 10.937822173508948,13.500000000000018 M 122.99999999999994,292.99999999999994 M 122.99999999999994,299.99999999999994 M 94.99999999999989,300.0 M 94.99999999999994,292.99999999999994 M 221.9999999999999,293.0 M 221.9999999999999,300.0 M 193.99999999999994,300.0 M 193.99999999999994,293.0 M 300.00000000000006,193.9999999999999 M 300.00000000000006,221.9999999999999 M 293.00000000000006,221.99999999999994 M 293.00000000000006,193.99999999999991 M 95.00000000000011,23.999999999999826 M 95.00000000000011,17.000000000000565 M 123.00000000000006,17.00000000000038 M 123.00000000000006,23.999999999999797 M 194.00000000000006,16.999999999998323 M 222.0000000000001,16.999999999997748 M 222.0000000000001,23.999999999999545 M 194.00000000000006,23.999999999999766 M 293.00000000000006,95.00000000000006 M 300.00000000000006,94.99999999999991 M 300.00000000000006,122.99999999999997 M 293.00000000000006,122.99999999999994 M 23.999999999999943,221.9999999999998 M 16.999999999999943,221.9999999999998 M 16.999999999999943,193.99999999999986 M 23.999999999999943,193.99999999999986 M 16.999999999999943,122.99999999999986 M 16.999999999999943,94.9999999999998 M 23.999999999999943,94.9999999999998 M 24.0,122.99999999999986 M 32.65333378169919,281.2836315909094 M 32.5,280.1189458879481 M 32.65333378169919,278.9542601849867 M 33.102885682970054,277.8689458879481 M 33.81801948466051,276.93696537260865 M 34.75,276.2218315709181 M 35.83531429703862,275.7722796696472 M 37.0,275.6189458879481 M 38.16468570296132,275.7722796696472 M 39.25,276.221831570918 M 40.18198051533949,276.93696537260854 M 40.897114317029946,277.8689458879481 M 41.34666621830081,278.9542601849867 M 41.5,280.11894588794803 M 41.346666218300754,281.2836315909094 M 40.89711431703,282.36894588794803 M 40.18198051533943,283.30092640328746 M 39.25,284.016060204978 M 38.164685702961265,284.46561210624884 M 37.0,284.61894588794803 M 35.83531429703868,284.46561210624884 M 34.75,284.016060204978 M 33.81801948466057,283.30092640328746 M 33.10288568297,282.3689458879481 M 32.65333378169919,38.164685702961364 M 32.49999999999994,36.99999999999999 M 32.65333378169919,35.835314297038636 M 33.10288568297,34.74999999999997 M 33.81801948466051,33.8180194846605 M 34.75,33.102885682970026 M 35.83531429703862,32.65333378169919 M 37.0,32.499999999999986 M 38.16468570296132,32.653333781699196 M 39.25,33.102885682970026 M 40.18198051533949,33.818019484660496 M 40.89711431703,34.75000000000001 M 41.34666621830081,35.83531429703865 M 41.5,36.99999999999999 M 41.34666621830081,38.16468570296135 M 40.897114317029946,39.25000000000002 M 40.18198051533949,40.181980515339504 M 39.25,40.89711431702997 M 38.16468570296132,41.34666621830081 M 37.0,41.500000000000014 M 35.83531429703862,41.3466662183008 M 34.75,40.89711431702997 M 33.81801948466051,40.18198051533949 M 33.10288568297,39.24999999999998 M 284.34666621830087,35.835314297038494 M 284.50000000000017,36.9999999999994 M 284.346666218301,38.16468570296121 M 283.89711431703,39.2499999999998 M 283.1819805153396,40.181980515339475 M 282.25000000000006,40.89711431702999 M 281.16468570296144,41.34666621830077 M 280.00000000000006,41.49999999999995 M 278.8353142970388,41.34666621830092 M 277.75000000000006,40.89711431702996 M 276.8180194846606,40.18198051533935 M 276.1028856829701,39.250000000000014 M 275.65333378169925,38.16468570296122 M 275.50000000000006,37.00000000000004 M 275.65333378169925,35.83531429703853 M 276.10288568297,34.750000000000455 M 276.8180194846605,33.81801948466114 M 277.75000000000006,33.102885682969564 M 278.8353142970388,32.65333378169869 M 280.00000000000006,32.499999999999794 M 281.16468570296144,32.6533337816993 M 282.25000000000006,33.102885682970516 M 283.1819805153396,33.818019484660624 M 283.89711431703,34.74999999999983 M 278.8353142970388,275.6533337816992 M 280.00000000000006,275.4999999999999 M 281.16468570296144,275.6533337816991 M 282.25000000000006,276.10288568297 M 283.1819805153395,276.81801948466045 M 283.89711431703,277.74999999999994 M 284.346666218301,278.8353142970385 M 284.50000000000017,279.99999999999994 M 284.34666621830087,281.1646857029613 M 283.89711431703,282.2499999999999 M 283.1819805153395,283.1819805153394 M 282.25000000000006,283.89711431702983 M 281.16468570296144,284.34666621830075 M 280.00000000000006,284.49999999999983 M 278.8353142970388,284.34666621830075 M 277.75000000000006,283.89711431702995 M 276.8180194846606,283.1819805153394 M 276.10288568297,282.2499999999999 M 275.65333378169925,281.16468570296126 M 275.50000000000006,279.99999999999994 M 275.65333378169925,278.8353142970385 M 276.1028856829701,277.74999999999994 M 276.8180194846606,276.81801948466045 M 277.75000000000006,276.10288568296994 "
  />
</svg>
