<?xml version="1.0" standalone="no"?>
<!DOCTYPE svg PUBLIC "-//W3C//DTD SVG 1.1//EN" "http://www.w3.org/Graphics/SVG/1.1/DTD/svg11.dtd">
<svg width="104.00000000010363mm" height="303.0000058856501mm"
 viewBox="0 0 104.00000000010363 303.0000058856501"
 xmlns="http://www.w3.org/2000/svg" version="1.1"
 xmlns:xlink="http://www.w3.org/1999/xlink">
<desc>Output from Flights of Ideas SVG Sketchup Plugin</desc>

  <path id="face0-cut"
 style="fill:none;stroke:#0000FF;stroke-width:1;stroke-miterlimit:4;stroke-dasharray:none;stroke-linejoin:round;stroke-linecap:round"
        d="M 17.0,88.00000000019284 L 10.0,88.00000000019284 L 10.000000000054143,116.09662108137022 L 17.000000000045162,116.09662108135657 L 17.000000000155865,187.00000000019284 L 10.000000000164817,187.00000000020472 L 10.000000000208757,215.0000000002045 L 17.00000000019901,215.00000000019284 L 17.000000000318295,286.00000000020054 L 24.000000000309228,286.0000000001893 L 24.000000000316902,293.0000000001821 L 37.99994658764942,293.0000039238397 L 37.999946587638306,286.0000000001626 L 65.99994658760221,286.00000000013097 L 65.99994658761335,293.0000058856501 L 80.00000000024534,293.00000000011823 L 80.00000000023766,286.0000000001229 L 87.00000000022868,286.00000000011744 L 87.00000000011255,215.00000000013208 L 94.00000000010363,215.00000000013145 L 94.00000000005917,187.00000000014862 L 87.00000000006816,187.00000000014634 L 86.99999999995543,116.00000000030994 L 93.99999999994645,116.00000000034626 L 94.00000000000227,88.00000000019284 L 87.00000000000227,88.00000000019284 L 86.99999999978718,10.0 L 79.99999999979616,10.000000000026546 L 80.00000000153364,17.083458974696015 L 66.00000004138155,17.083458952514974 L 65.99999999981401,10.000000000074778 L 37.99999999984988,10.00000000015197 L 37.99999999986099,17.00000000015106 L 23.99999999987884,17.00000000018065 L 23.999999999867725,10.000000000180876 L 16.99999999987685,10.000000000192983 L 17.0,88.00000000019284 M 55.235184651343985,250.57407282874837 L 51.99994658756475,251.00000000013986 L 48.76470852378415,250.57407282875866 L 45.74994658756512,249.32531754745642 L 43.161111822731414,247.33883476498815 L 41.174629040254615,244.75000000016118 L 39.92587375894257,241.7352380639467 L 39.49994658755102,238.500000000168 L 39.92587375893231,235.26476193638806 L 41.174629040234805,232.2500000001696 L 43.16111182270333,229.66116523533637 L 45.74994658753076,227.67468245286008 L 48.76470852374581,226.4259271715484 L 51.999946587525045,226.00000000015675 L 55.235184651305616,226.42592717153812 L 58.24994658752462,227.67468245284024 L 60.838781352358325,229.6611652353083 L 62.82526413483515,232.2500000001352 L 64.07401941614717,235.26476193634974 L 64.49994658753872,238.50000000012827 L 64.0740194161574,241.73523806390827 L 62.82526413485499,244.7500000001268 L 60.838781352386434,247.33883476496007 L 58.24994658755898,249.3253175474364 L 55.235184651343985,250.57407282874837 M 39.00000000002257,115.30000000032507 L 39.439992376696495,115.35792609563478 L 39.85000000002208,115.52775681389286 L 40.20208152803937,115.79791847230857 L 40.47224318645618,116.15000000032418 L 40.642073904714636,116.56000762364775 L 40.700000000024005,117.00000000031932 L 40.64207390471631,117.43999237699066 L 40.472243186459394,117.85000000031332 L 40.20208152804389,118.20208152832757 L 39.85000000002765,118.4722431867414 L 39.43999237670269,118.64207390499709 L 39.00000000002896,118.70000000030413 L 38.560007623355006,118.64207390499465 L 38.15000000002942,118.47224318673656 L 37.79791847201213,118.20208152832058 L 37.52775681359532,117.85000000030468 L 37.35792609533689,117.43999237698077 L 37.300000000027495,117.00000000030886 L 37.357926095335216,116.56000762363735 L 37.527756813592134,116.15000000031469 L 37.79791847200758,115.79791847230061 L 38.15000000002388,115.52775681388712 L 38.56000762334884,115.35792609563177 L 39.00000000002257,115.30000000032507 M 39.439992376663696,88.64207391261792 L 38.99999999999358,88.70000000744719 L 38.56000762332249,88.64207391291703 L 38.1499999999987,88.47224319763254 L 37.79791847198206,88.20208155390898 L 37.52775681356471,87.84999996590247 L 37.35792609530452,87.43999236784802 L 37.29999999999245,86.99999999527145 L 37.357926095296534,86.56000762020935 L 37.527756813549274,86.14999999770927 L 37.79791847196017,85.79791847016716 L 38.1499999999719,85.52775681203477 L 38.56000762329262,85.35792609393903 L 38.99999999996268,85.29999999870196 L 39.439992376633796,85.35792609400178 L 39.84999999995762,85.52775681216528 L 40.20208152797423,85.79791847037708 L 40.47224318639158,86.14999999802038 L 40.64207390465174,86.56000762066347 L 40.699999999963865,86.99999999596227 L 40.64207390465978,87.43999236906299 L 40.47224318640704,87.8499999700417 L 40.202081527996114,88.20208155136206 L 39.84999999998436,88.47224319685299 L 39.439992376663696,88.64207391261792 M 51.99999999988748,45.000000000126505 L 55.23523806366808,45.42592717150703 L 58.24999999988705,46.67468245280676 L 60.83883476472079,48.6611652352706 L 62.825317547197585,51.250000000091234 L 64.0740728285096,54.26476193629705 L 64.4999999999012,57.50000000006432 L 64.07407282851989,60.73523806383005 L 62.82531754721737,63.75000000003163 L 60.83883476474884,66.33883476484667 L 58.24999999992144,68.32531754730567 L 55.23523806370639,69.57407282860456 L 51.999999999927155,69.99999999999127 L 48.764761936146556,69.57407282861485 L 45.74999999992758,68.32531754732557 L 43.161165235093875,66.33883476487469 L 41.17468245261705,63.750000000066024 L 39.92592717130506,60.73523806386842 L 39.499999999913484,57.500000000103995 L 39.925927171294774,54.26476193633536 L 41.17468245259724,51.25000000012557 L 43.161165235065795,48.66116523529877 L 45.74999999989319,46.6746824528266 L 48.76476193610824,45.42592717151726 L 51.99999999988748,45.000000000126505 M 32.000000000027455,113.00000000031653 L 31.99999999999247,91.00000000140042 L 45.99999999997459,91.0000000021038 L 46.00000000000949,113.00000000038139 L 32.000000000027455,113.00000000031653 "
  />
  <path id="face0-interior"
 style="fill:none;stroke:#FF0000;stroke-width:1;stroke-miterlimit:4;stroke-dasharray:none;stroke-linejoin:round;stroke-linecap:round"
        d="M 17.0,88.00000000019284 M 10.0,88.00000000019284 M 10.000000000054143,116.09662108137022 M 17.000000000045162,116.09662108135657 M 17.000000000155865,187.00000000019284 M 10.000000000164817,187.00000000020472 M 10.000000000208757,215.0000000002045 M 17.00000000019901,215.00000000019284 M 17.000000000318295,286.00000000020054 M 24.000000000309228,286.0000000001893 M 24.000000000316902,293.0000000001821 M 37.99994658764942,293.0000039238397 M 37.999946587638306,286.0000000001626 M 65.99994658760221,286.00000000013097 M 65.99994658761335,293.0000058856501 M 80.00000000024534,293.00000000011823 M 80.00000000023766,286.0000000001229 M 87.00000000022868,286.00000000011744 M 87.00000000011255,215.00000000013208 M 94.00000000010363,215.00000000013145 M 94.00000000005917,187.00000000014862 M 87.00000000006816,187.00000000014634 M 86.99999999995543,116.00000000030994 M 93.99999999994645,116.00000000034626 M 94.00000000000227,88.00000000019284 M 87.00000000000227,88.00000000019284 M 86.99999999978718,10.0 M 79.99999999979616,10.000000000026546 M 80.00000000153364,17.083458974696015 M 66.00000004138155,17.083458952514974 M 65.99999999981401,10.000000000074778 M 37.99999999984988,10.00000000015197 M 37.99999999986099,17.00000000015106 M 23.99999999987884,17.00000000018065 M 23.999999999867725,10.000000000180876 M 16.99999999987685,10.000000000192983 M 55.235184651343985,250.57407282874837 M 51.99994658756475,251.00000000013986 M 48.76470852378415,250.57407282875866 M 45.74994658756512,249.32531754745642 M 43.161111822731414,247.33883476498815 M 41.174629040254615,244.75000000016118 M 39.92587375894257,241.7352380639467 M 39.49994658755102,238.500000000168 M 39.92587375893231,235.26476193638806 M 41.174629040234805,232.2500000001696 M 43.16111182270333,229.66116523533637 M 45.74994658753076,227.67468245286008 M 48.76470852374581,226.4259271715484 M 51.999946587525045,226.00000000015675 M 55.235184651305616,226.42592717153812 M 58.24994658752462,227.67468245284024 M 60.838781352358325,229.6611652353083 M 62.82526413483515,232.2500000001352 M 64.07401941614717,235.26476193634974 M 64.49994658753872,238.50000000012827 M 64.0740194161574,241.73523806390827 M 62.82526413485499,244.7500000001268 M 60.838781352386434,247.33883476496007 M 58.24994658755898,249.3253175474364 M 39.00000000002257,115.30000000032507 M 39.439992376696495,115.35792609563478 M 39.85000000002208,115.52775681389286 M 40.20208152803937,115.79791847230857 M 40.47224318645618,116.15000000032418 M 40.642073904714636,116.56000762364775 M 40.700000000024005,117.00000000031932 M 40.64207390471631,117.43999237699066 M 40.472243186459394,117.85000000031332 M 40.20208152804389,118.20208152832757 M 39.85000000002765,118.4722431867414 M 39.43999237670269,118.64207390499709 M 39.00000000002896,118.70000000030413 M 38.560007623355006,118.64207390499465 M 38.15000000002942,118.47224318673656 M 37.79791847201213,118.20208152832058 M 37.52775681359532,117.85000000030468 M 37.35792609533689,117.43999237698077 M 37.300000000027495,117.00000000030886 M 37.357926095335216,116.56000762363735 M 37.527756813592134,116.15000000031469 M 37.79791847200758,115.79791847230061 M 38.15000000002388,115.52775681388712 M 38.56000762334884,115.35792609563177 M 39.439992376663696,88.64207391261792 M 38.99999999999358,88.70000000744719 M 38.56000762332249,88.64207391291703 M 38.1499999999987,88.47224319763254 M 37.79791847198206,88.20208155390898 M 37.52775681356471,87.84999996590247 M 37.35792609530452,87.43999236784802 M 37.29999999999245,86.99999999527145 M 37.357926095296534,86.56000762020935 M 37.527756813549274,86.14999999770927 M 37.79791847196017,85.79791847016716 M 38.1499999999719,85.52775681203477 M 38.56000762329262,85.35792609393903 M 38.99999999996268,85.29999999870196 M 39.439992376633796,85.35792609400178 M 39.84999999995762,85.52775681216528 M 40.20208152797423,85.79791847037708 M 40.47224318639158,86.14999999802038 M 40.64207390465174,86.56000762066347 M 40.699999999963865,86.99999999596227 M 40.64207390465978,87.43999236906299 M 40.47224318640704,87.8499999700417 M 40.202081527996114,88.20208155136206 M 39.84999999998436,88.47224319685299 M 51.99999999988748,45.000000000126505 M 55.23523806366808,45.42592717150703 M 58.24999999988705,46.67468245280676 M 60.83883476472079,48.6611652352706 M 62.825317547197585,51.250000000091234 M 64.0740728285096,54.26476193629705 M 64.4999999999012,57.50000000006432 M 64.07407282851989,60.73523806383005 M 62.82531754721737,63.75000000003163 M 60.83883476474884,66.33883476484667 M 58.24999999992144,68.32531754730567 M 55.23523806370639,69.57407282860456 M 51.999999999927155,69.99999999999127 M 48.764761936146556,69.57407282861485 M 45.74999999992758,68.32531754732557 M 43.161165235093875,66.33883476487469 M 41.17468245261705,63.750000000066024 M 39.92592717130506,60.73523806386842 M 39.499999999913484,57.500000000103995 M 39.925927171294774,54.26476193633536 M 41.17468245259724,51.25000000012557 M 43.161165235065795,48.66116523529877 M 45.74999999989319,46.6746824528266 M 48.76476193610824,45.42592717151726 M 32.000000000027455,113.00000000031653 M 31.99999999999247,91.00000000140042 M 45.99999999997459,91.0000000021038 M 46.00000000000949,113.00000000038139 "
  />
  <path id="face0-interior"
 style="fill:none;stroke:#00FF00;stroke-width:1;stroke-miterlimit:4;stroke-dasharray:none;stroke-linejoin:round;stroke-linecap:round"
        d="M 17.0,88.00000000019284 M 10.0,88.00000000019284 M 10.000000000054143,116.09662108137022 M 17.000000000045162,116.09662108135657 M 17.000000000155865,187.00000000019284 M 10.000000000164817,187.00000000020472 M 10.000000000208757,215.0000000002045 M 17.00000000019901,215.00000000019284 M 17.000000000318295,286.00000000020054 M 24.000000000309228,286.0000000001893 M 24.000000000316902,293.0000000001821 M 37.99994658764942,293.0000039238397 M 37.999946587638306,286.0000000001626 M 65.99994658760221,286.00000000013097 M 65.99994658761335,293.0000058856501 M 80.00000000024534,293.00000000011823 M 80.00000000023766,286.0000000001229 M 87.00000000022868,286.00000000011744 M 87.00000000011255,215.00000000013208 M 94.00000000010363,215.00000000013145 M 94.00000000005917,187.00000000014862 M 87.00000000006816,187.00000000014634 M 86.99999999995543,116.00000000030994 M 93.99999999994645,116.00000000034626 M 94.00000000000227,88.00000000019284 M 87.00000000000227,88.00000000019284 M 86.99999999978718,10.0 M 79.99999999979616,10.000000000026546 M 80.00000000153364,17.083458974696015 M 66.00000004138155,17.083458952514974 M 65.99999999981401,10.000000000074778 M 37.99999999984988,10.00000000015197 M 37.99999999986099,17.00000000015106 M 23.99999999987884,17.00000000018065 M 23.999999999867725,10.000000000180876 M 16.99999999987685,10.000000000192983 M 55.235184651343985,250.57407282874837 M 51.99994658756475,251.00000000013986 M 48.76470852378415,250.57407282875866 M 45.74994658756512,249.32531754745642 M 43.161111822731414,247.33883476498815 M 41.174629040254615,244.75000000016118 M 39.92587375894257,241.7352380639467 M 39.49994658755102,238.500000000168 M 39.92587375893231,235.26476193638806 M 41.174629040234805,232.2500000001696 M 43.16111182270333,229.66116523533637 M 45.74994658753076,227.67468245286008 M 48.76470852374581,226.4259271715484 M 51.999946587525045,226.00000000015675 M 55.235184651305616,226.42592717153812 M 58.24994658752462,227.67468245284024 M 60.838781352358325,229.6611652353083 M 62.82526413483515,232.2500000001352 M 64.07401941614717,235.26476193634974 M 64.49994658753872,238.50000000012827 M 64.0740194161574,241.73523806390827 M 62.82526413485499,244.7500000001268 M 60.838781352386434,247.33883476496007 M 58.24994658755898,249.3253175474364 M 39.00000000002257,115.30000000032507 M 39.439992376696495,115.35792609563478 M 39.85000000002208,115.52775681389286 M 40.20208152803937,115.79791847230857 M 40.47224318645618,116.15000000032418 M 40.642073904714636,116.56000762364775 M 40.700000000024005,117.00000000031932 M 40.64207390471631,117.43999237699066 M 40.472243186459394,117.85000000031332 M 40.20208152804389,118.20208152832757 M 39.85000000002765,118.4722431867414 M 39.43999237670269,118.64207390499709 M 39.00000000002896,118.70000000030413 M 38.560007623355006,118.64207390499465 M 38.15000000002942,118.47224318673656 M 37.79791847201213,118.20208152832058 M 37.52775681359532,117.85000000030468 M 37.35792609533689,117.43999237698077 M 37.300000000027495,117.00000000030886 M 37.357926095335216,116.56000762363735 M 37.527756813592134,116.15000000031469 M 37.79791847200758,115.79791847230061 M 38.15000000002388,115.52775681388712 M 38.56000762334884,115.35792609563177 M 39.439992376663696,88.64207391261792 M 38.99999999999358,88.70000000744719 M 38.56000762332249,88.64207391291703 M 38.1499999999987,88.47224319763254 M 37.79791847198206,88.20208155390898 M 37.52775681356471,87.84999996590247 M 37.35792609530452,87.43999236784802 M 37.29999999999245,86.99999999527145 M 37.357926095296534,86.56000762020935 M 37.527756813549274,86.14999999770927 M 37.79791847196017,85.79791847016716 M 38.1499999999719,85.52775681203477 M 38.56000762329262,85.35792609393903 M 38.99999999996268,85.29999999870196 M 39.439992376633796,85.35792609400178 M 39.84999999995762,85.52775681216528 M 40.20208152797423,85.79791847037708 M 40.47224318639158,86.14999999802038 M 40.64207390465174,86.56000762066347 M 40.699999999963865,86.99999999596227 M 40.64207390465978,87.43999236906299 M 40.47224318640704,87.8499999700417 M 40.202081527996114,88.20208155136206 M 39.84999999998436,88.47224319685299 M 51.99999999988748,45.000000000126505 M 55.23523806366808,45.42592717150703 M 58.24999999988705,46.67468245280676 M 60.83883476472079,48.6611652352706 M 62.825317547197585,51.250000000091234 M 64.0740728285096,54.26476193629705 M 64.4999999999012,57.50000000006432 M 64.07407282851989,60.73523806383005 M 62.82531754721737,63.75000000003163 M 60.83883476474884,66.33883476484667 M 58.24999999992144,68.32531754730567 M 55.23523806370639,69.57407282860456 M 51.999999999927155,69.99999999999127 M 48.764761936146556,69.57407282861485 M 45.74999999992758,68.32531754732557 M 43.161165235093875,66.33883476487469 M 41.17468245261705,63.750000000066024 M 39.92592717130506,60.73523806386842 M 39.499999999913484,57.500000000103995 M 39.925927171294774,54.26476193633536 M 41.17468245259724,51.25000000012557 M 43.161165235065795,48.66116523529877 M 45.74999999989319,46.6746824528266 M 48.76476193610824,45.42592717151726 M 32.000000000027455,113.00000000031653 M 31.99999999999247,91.00000000140042 M 45.99999999997459,91.0000000021038 M 46.00000000000949,113.00000000038139 "
  />
</svg>
