<?xml version="1.0" standalone="no"?>
<!DOCTYPE svg PUBLIC "-//W3C//DTD SVG 1.1//EN" "http://www.w3.org/Graphics/SVG/1.1/DTD/svg11.dtd">
<svg width="104.00000000019607mm" height="303.0000058856257mm"
 viewBox="0 0 104.00000000019607 303.0000058856257"
 xmlns="http://www.w3.org/2000/svg" version="1.1"
 xmlns:xlink="http://www.w3.org/1999/xlink">
<desc>Output from Flights of Ideas SVG Sketchup Plugin</desc>

  <path id="face0-cut"
 style="fill:none;stroke:#0000FF;stroke-width:1;stroke-miterlimit:4;stroke-dasharray:none;stroke-linejoin:round;stroke-linecap:round"
        d="M 17.000000000190063,215.00000000014256 L 17.000000000309377,286.00000000015024 L 24.000000000300265,286.0000000001392 L 24.00000000030795,293.0000000001326 L 37.99994658764044,293.00000392379457 L 37.99994658762934,286.000000000118 L 65.99994658759329,286.00000000011005 L 65.99994658760437,293.0000058856257 L 80.00000000023631,293.0000000001101 L 80.00000000022867,286.0000000001141 L 87.00000000021977,286.0000000001189 L 87.00000000019604,215.00000000014256 L 94.00000000019607,215.00000000014256 L 94.00000000005022,186.99999999974153 L 87.00000000005915,186.99999999980042 L 86.99999999994645,115.99999999996612 L 93.99999999993753,115.9999999999415 L 93.99999999989309,87.9999999999589 L 86.99999999990202,87.99999999998056 L 86.99999999977823,10.0 L 79.99999999978718,10.00000000001701 L 80.00000000152464,17.083458978840767 L 66.00000004137263,17.08345897091118 L 65.99999999980506,10.000000000049226 L 37.999999999840924,10.000000000106297 L 37.99999999985205,17.000000000106084 L 23.999999999869885,17.00000000013104 L 23.999999999858794,10.000000000131166 L 16.99999999986789,10.000000000142663 L 16.999999999991037,88.00000000014256 L 10.0,88.00000000015326 L 10.000000000045173,116.09662108131673 L 17.00000000003621,116.09662108130627 L 17.000000000146922,187.00000000014256 L 10.000000000155884,187.00000000015132 L 10.000000000190886,215.00000000014256 L 17.000000000190063,215.00000000014256 "
  />
  <path id="face0-interior"
 style="fill:none;stroke:#FF0000;stroke-width:1;stroke-miterlimit:4;stroke-dasharray:none;stroke-linejoin:round;stroke-linecap:round"
        d="M 17.000000000190063,215.00000000014256 M 17.000000000309377,286.00000000015024 M 24.000000000300265,286.0000000001392 M 24.00000000030795,293.0000000001326 M 37.99994658764044,293.00000392379457 M 37.99994658762934,286.000000000118 M 65.99994658759329,286.00000000011005 M 65.99994658760437,293.0000058856257 M 80.00000000023631,293.0000000001101 M 80.00000000022867,286.0000000001141 M 87.00000000021977,286.0000000001189 M 87.00000000019604,215.00000000014256 M 94.00000000019607,215.00000000014256 M 94.00000000005022,186.99999999974153 M 87.00000000005915,186.99999999980042 M 86.99999999994645,115.99999999996612 M 93.99999999993753,115.9999999999415 M 93.99999999989309,87.9999999999589 M 86.99999999990202,87.99999999998056 M 86.99999999977823,10.0 M 79.99999999978718,10.00000000001701 M 80.00000000152464,17.083458978840767 M 66.00000004137263,17.08345897091118 M 65.99999999980506,10.000000000049226 M 37.999999999840924,10.000000000106297 M 37.99999999985205,17.000000000106084 M 23.999999999869885,17.00000000013104 M 23.999999999858794,10.000000000131166 M 16.99999999986789,10.000000000142663 M 16.999999999991037,88.00000000014256 M 10.0,88.00000000015326 M 10.000000000045173,116.09662108131673 M 17.00000000003621,116.09662108130627 M 17.000000000146922,187.00000000014256 M 10.000000000155884,187.00000000015132 M 10.000000000190886,215.00000000014256 "
  />
  <path id="face0-interior"
 style="fill:none;stroke:#00FF00;stroke-width:1;stroke-miterlimit:4;stroke-dasharray:none;stroke-linejoin:round;stroke-linecap:round"
        d="M 17.000000000190063,215.00000000014256 M 17.000000000309377,286.00000000015024 M 24.000000000300265,286.0000000001392 M 24.00000000030795,293.0000000001326 M 37.99994658764044,293.00000392379457 M 37.99994658762934,286.000000000118 M 65.99994658759329,286.00000000011005 M 65.99994658760437,293.0000058856257 M 80.00000000023631,293.0000000001101 M 80.00000000022867,286.0000000001141 M 87.00000000021977,286.0000000001189 M 87.00000000019604,215.00000000014256 M 94.00000000019607,215.00000000014256 M 94.00000000005022,186.99999999974153 M 87.00000000005915,186.99999999980042 M 86.99999999994645,115.99999999996612 M 93.99999999993753,115.9999999999415 M 93.99999999989309,87.9999999999589 M 86.99999999990202,87.99999999998056 M 86.99999999977823,10.0 M 79.99999999978718,10.00000000001701 M 80.00000000152464,17.083458978840767 M 66.00000004137263,17.08345897091118 M 65.99999999980506,10.000000000049226 M 37.999999999840924,10.000000000106297 M 37.99999999985205,17.000000000106084 M 23.999999999869885,17.00000000013104 M 23.999999999858794,10.000000000131166 M 16.99999999986789,10.000000000142663 M 16.999999999991037,88.00000000014256 M 10.0,88.00000000015326 M 10.000000000045173,116.09662108131673 M 17.00000000003621,116.09662108130627 M 17.000000000146922,187.00000000014256 M 10.000000000155884,187.00000000015132 M 10.000000000190886,215.00000000014256 "
  />
</svg>
