<?xml version="1.0" standalone="no"?>
<!DOCTYPE svg PUBLIC "-//W3C//DTD SVG 1.1//EN" "http://www.w3.org/Graphics/SVG/1.1/DTD/svg11.dtd">
<svg width="317.00000000000006mm" height="316.99999999999994mm"
 viewBox="0 0 317.00000000000006 316.99999999999994"
 xmlns="http://www.w3.org/2000/svg" version="1.1"
 xmlns:xlink="http://www.w3.org/1999/xlink">
<desc>Output from Flights of Ideas SVG Sketchup Plugin</desc>

  <path id="face0-cut"
 style="fill:none;stroke:#0000FF;stroke-width:1;stroke-miterlimit:4;stroke-dasharray:none;stroke-linejoin:round;stroke-linecap:round"
        d="M 10.0,16.999999999999996 L 10.000000000000018,299.99999999999994 L 10.23851921597656,301.81173331571756 L 10.937822173508932,303.49999999999994 L 12.050252531694149,304.94974746830576 L 13.500000000000007,306.062177826491 L 15.188266684282357,306.7614807840234 L 17.000000000000004,306.99999999999994 L 300.0000000000001,306.99999999999994 L 301.81173331571785,306.76148078402343 L 303.5000000000001,306.06217782649117 L 304.94974746830593,304.9497474683059 L 306.06217782649117,303.49999999999994 L 306.7614807840236,301.81173331571756 L 307.00000000000006,300.0 L 307.0,16.999999999999996 L 306.76148078402343,15.18826668428251 L 306.06217782649105,13.500000000000595 L 304.9497474683058,12.050252531692173 L 303.5000000000001,10.937822173511229 L 301.8117333157177,10.23851921597808 L 300.0000000000001,10.000000000000348 L 17.0,10.0 L 15.188266684282354,10.23851921597652 L 13.5,10.937822173508927 L 12.050252531694166,12.050252531694166 L 10.93782217350893,13.499999999999996 L 10.238519215976522,15.188266684282352 L 10.0,16.999999999999996 M 284.34666621830087,278.83531429703856 L 284.5000000000001,279.99999999999994 L 284.34666621830087,281.16468570296126 L 283.89711431703006,282.2499999999999 L 283.18198051533955,283.1819805153395 L 282.2500000000001,283.8971143170299 L 281.16468570296144,284.3466662183007 L 280.00000000000006,284.49999999999994 L 278.8353142970388,284.34666621830064 L 277.7500000000001,283.89711431702983 L 276.8180194846606,283.1819805153394 L 276.1028856829701,282.2499999999999 L 275.65333378169925,281.1646857029614 L 275.50000000000006,279.99999999999994 L 275.65333378169925,278.83531429703856 L 276.10288568297017,277.7499999999999 L 276.81801948466057,276.81801948466045 L 277.75000000000006,276.10288568296994 L 278.83531429703874,275.65333378169913 L 280.0000000000001,275.49999999999983 L 281.16468570296144,275.6533337816992 L 282.25000000000006,276.10288568296994 L 283.18198051533955,276.8180194846604 L 283.89711431703006,277.7499999999999 L 284.34666621830087,278.83531429703856 M 284.34666621830087,35.83531429703899 L 284.5000000000001,36.99999999999993 L 284.34666621830087,38.16468570296162 L 283.89711431703006,39.25000000000037 L 283.18198051533955,40.18198051533938 L 282.25000000000006,40.89711431703023 L 281.16468570296144,41.346666218301195 L 280.00000000000006,41.49999999999986 L 278.83531429703874,41.3466662183004 L 277.7500000000001,40.8971143170298 L 276.8180194846606,40.181980515339454 L 276.1028856829701,39.24999999999977 L 275.65333378169925,38.16468570296126 L 275.50000000000006,37.00000000000034 L 275.65333378169925,35.835314297038494 L 276.1028856829701,34.75000000000023 L 276.8180194846606,33.81801948466084 L 277.7500000000001,33.10288568296922 L 278.83531429703874,32.653333781699175 L 280.00000000000006,32.49999999999945 L 281.16468570296144,32.65333378169915 L 282.25000000000006,33.102885682969806 L 283.18198051533955,33.818019484660724 L 283.89711431703006,34.750000000000064 L 284.34666621830087,35.83531429703899 M 154.18724582549933,188.21187202642324 L 155.52316255959445,188.14624264572294 L 155.5,187.9999999999999 L 155.6468304511146,187.07294901687516 L 156.07294901687519,186.23664424312247 L 156.7366442431226,185.57294901687507 L 157.57294901687519,185.14683045111445 L 158.50000000000003,184.99999999999994 L 159.42705098312487,185.14683045111457 L 160.26335575687747,185.5729490168751 L 160.92705098312484,186.2366442431225 L 161.3531695488855,187.07294901687516 L 161.50000000000003,187.99999999999991 L 161.47683744040563,188.1462426457229 L 162.8127541745007,188.21187202642326 L 167.0839741687097,188.84544766225778 L 171.27252579919633,189.89462522778277 L 175.33807102406402,191.34930056950324 L 179.24145642034392,193.19546436867233 L 182.9450902528625,195.415337058688 L 186.4133045032004,197.9875400520395 L 189.61269837220814,200.88730162779183 L 192.51245994796042,204.0866954967996 L 195.08466294131208,207.55490974713737 L 197.30453563132764,211.25854357965602 L 199.15069943049664,215.161928975936 L 200.6053747722172,219.2274742008035 L 201.65455233774216,223.41602583129017 L 202.28812797357668,227.6872458254993 L 202.50000000000003,232.0 L 202.28812797357668,236.31275417450067 L 201.6545523377422,240.58397416870963 L 200.60537477221723,244.7725257991963 L 199.15069943049664,248.838071024064 L 197.30453563132764,252.74145642034395 L 195.08466294131205,256.4450902528623 L 192.51245994796045,259.91330450320044 L 189.61269837220811,263.112698372208 L 186.41330450320052,266.0124599479603 L 182.94509025286249,268.584662941312 L 179.24145642034392,270.80453563132767 L 175.338071024064,272.65069943049656 L 171.27252579919642,274.1053747722172 L 167.0839741687097,275.154552337742 L 162.8127541745007,275.7881279735766 L 161.4768374404056,275.85375735427704 L 161.50000000000006,276.0 L 161.3531695488855,276.92705098312484 L 160.92705098312484,277.7633557568774 L 160.2633557568775,278.4270509831248 L 159.42705098312493,278.8531695488854 L 158.50000000000003,279.0 L 157.5729490168752,278.85316954888543 L 156.73664424312258,278.42705098312484 L 156.0729490168752,277.7633557568774 L 155.64683045111457,276.92705098312484 L 155.50000000000003,275.99999999999994 L 155.52316255959445,275.85375735427704 L 154.1872458254994,275.7881279735766 L 149.91602583129045,275.1545523377421 L 145.72747420080364,274.1053747722172 L 141.66192897593606,272.65069943049656 L 137.75854357965616,270.80453563132755 L 134.05490974713754,268.58466294131193 L 130.58669549679962,266.0124599479604 L 127.38730162779191,263.112698372208 L 124.48754005203956,259.9133045032004 L 121.91533705868807,256.4450902528624 L 119.69546436867242,252.74145642034395 L 117.84930056950343,248.83807102406385 L 116.39462522778284,244.7725257991963 L 115.34544766225788,240.58397416870963 L 114.71187202642335,236.3127541745006 L 114.5,232.0 L 114.71187202642338,227.68724582549922 L 115.34544766225788,223.4160258312903 L 116.39462522778284,219.22747420080356 L 117.8493005695034,215.16192897593604 L 119.69546436867235,211.25854357965605 L 121.91533705868802,207.5549097471374 L 124.4875400520396,204.08669549679954 L 127.38730162779196,200.88730162779186 L 130.5866954967996,197.98754005203955 L 134.05490974713754,195.415337058688 L 137.75854357965613,193.1954643686724 L 141.66192897593606,191.3493005695033 L 145.72747420080364,189.89462522778277 L 149.91602583129037,188.84544766225778 L 154.18724582549933,188.21187202642324 M 227.68724582549933,114.71187202642338 L 229.0231625595945,114.64624264572286 L 229.00000000000003,114.5000000000001 L 229.1468304511146,113.57294901687519 L 229.57294901687519,112.7366442431226 L 230.2366442431226,112.07294901687509 L 231.07294901687519,111.64683045111443 L 232.00000000000003,111.50000000000001 L 232.9270509831249,111.64683045111454 L 233.76335575687747,112.07294901687509 L 234.42705098312487,112.73664424312261 L 234.8531695488855,113.57294901687516 L 235.00000000000003,114.49999999999999 L 234.9768374404056,114.64624264572294 L 236.31275417450064,114.71187202642342 L 240.5839741687097,115.34544766225791 L 244.77252579919636,116.39462522778278 L 248.83807102406405,117.84930056950338 L 252.74145642034392,119.69546436867242 L 256.44509025286254,121.91533705868798 L 259.9133045032004,124.48754005203963 L 263.1126983722081,127.38730162779196 L 266.01245994796045,130.58669549679965 L 268.58466294131205,134.05490974713751 L 270.80453563132767,137.7585435796562 L 272.6506994304967,141.6619289759361 L 274.1053747722172,145.72747420080367 L 275.1545523377422,149.91602583129034 L 275.7881279735767,154.18724582549933 L 276.00000000000006,158.50000000000006 L 275.78812797357676,162.81275417450058 L 275.1545523377422,167.08397416870972 L 274.10537477221726,171.27252579919633 L 272.6506994304967,175.338071024064 L 270.80453563132767,179.24145642034384 L 268.5846629413121,182.94509025286246 L 266.01245994796045,186.4133045032004 L 263.1126983722082,189.61269837220811 L 259.9133045032005,192.51245994796045 L 256.44509025286254,195.0846629413119 L 252.74145642034392,197.30453563132758 L 248.83807102406402,199.15069943049664 L 244.77252579919642,200.6053747722172 L 240.5839741687097,201.6545523377421 L 236.31275417450064,202.28812797357674 L 234.9768374404056,202.35375735427715 L 235.00000000000003,202.50000000000006 L 234.8531695488855,203.42705098312493 L 234.42705098312487,204.26335575687747 L 233.76335575687747,204.92705098312493 L 232.9270509831249,205.35316954888555 L 232.00000000000003,205.50000000000003 L 231.07294901687519,205.35316954888555 L 230.2366442431226,204.92705098312496 L 229.57294901687519,204.26335575687747 L 229.1468304511146,203.4270509831249 L 229.00000000000003,202.50000000000003 L 229.02316255959445,202.35375735427712 L 227.6872458254994,202.28812797357668 L 223.41602583129043,201.65455233774213 L 219.22747420080364,200.60537477221715 L 215.16192897593606,199.15069943049664 L 211.25854357965613,197.30453563132767 L 207.55490974713751,195.08466294131196 L 204.0866954967996,192.5124599479604 L 200.88730162779194,189.61269837220806 L 197.9875400520396,186.4133045032004 L 195.41533705868804,182.94509025286249 L 193.19546436867242,179.24145642034392 L 191.34930056950344,175.33807102406388 L 189.89462522778283,171.27252579919633 L 188.84544766225787,167.08397416870972 L 188.21187202642335,162.81275417450072 L 188.0,158.50000000000003 L 188.21187202642335,154.18724582549933 L 188.8454476622579,149.91602583129034 L 189.89462522778285,145.72747420080367 L 191.3493005695034,141.66192897593606 L 193.1954643686724,137.75854357965613 L 195.41533705868798,134.05490974713763 L 197.98754005203958,130.58669549679968 L 200.8873016277919,127.38730162779196 L 204.08669549679962,124.48754005203963 L 207.55490974713754,121.91533705868807 L 211.25854357965616,119.69546436867238 L 215.16192897593606,117.84930056950341 L 219.22747420080364,116.39462522778287 L 223.41602583129037,115.34544766225784 L 227.68724582549933,114.71187202642338 M 80.68724582549933,114.71187202642334 L 82.02316255959443,114.64624264572294 L 82.0,114.50000000000003 L 82.14683045111455,113.57294901687517 L 82.57294901687516,112.73664424312258 L 83.23664424312258,112.07294901687516 L 84.07294901687516,111.64683045111452 L 85.0,111.49999999999999 L 85.92705098312483,111.64683045111454 L 86.7633557568774,112.07294901687516 L 87.42705098312483,112.73664424312261 L 87.85316954888545,113.57294901687517 L 87.99999999999999,114.50000000000001 L 87.97683744040557,114.64624264572292 L 89.31275417450067,114.71187202642334 L 93.58397416870964,115.34544766225791 L 97.77252579919633,116.39462522778277 L 101.83807102406396,117.84930056950338 L 105.74145642034388,119.69546436867233 L 109.44509025286247,121.91533705868802 L 112.91330450320038,124.48754005203952 L 116.11269837220809,127.38730162779196 L 119.01245994796041,130.58669549679956 L 121.58466294131198,134.05490974713746 L 123.80453563132758,137.75854357965608 L 125.65069943049662,141.66192897593598 L 127.10537477221717,145.72747420080367 L 128.15455233774213,149.9160258312903 L 128.78812797357665,154.18724582549936 L 129.0,158.49999999999991 L 128.78812797357665,162.81275417450064 L 128.15455233774213,167.08397416870966 L 127.10537477221722,171.2725257991963 L 125.65069943049662,175.33807102406402 L 123.80453563132764,179.24145642034387 L 121.58466294131202,182.9450902528625 L 119.01245994796041,186.4133045032004 L 116.11269837220809,189.6126983722081 L 112.91330450320042,192.51245994796042 L 109.44509025286249,195.08466294131193 L 105.74145642034391,197.30453563132767 L 101.83807102406398,199.15069943049667 L 97.77252579919636,200.60537477221723 L 93.58397416870964,201.65455233774216 L 89.31275417450065,202.2881279735767 L 87.97683744040557,202.35375735427704 L 88.0,202.50000000000003 L 87.85316954888546,203.42705098312481 L 87.42705098312481,204.2633557568774 L 86.76335575687739,204.92705098312484 L 85.92705098312484,205.35316954888543 L 85.00000000000001,205.50000000000003 L 84.07294901687514,205.35316954888546 L 83.23664424312258,204.92705098312484 L 82.57294901687519,204.2633557568774 L 82.14683045111454,203.42705098312484 L 82.00000000000003,202.50000000000006 L 82.0231625595944,202.35375735427704 L 80.68724582549932,202.28812797357668 L 76.41602583129036,201.65455233774216 L 72.22747420080361,200.60537477221723 L 68.16192897593604,199.15069943049667 L 64.25854357965609,197.30453563132764 L 60.554909747137486,195.08466294131196 L 57.086695496799585,192.51245994796042 L 53.887301627791885,189.61269837220811 L 50.98754005203954,186.4133045032004 L 48.415337058688024,182.94509025286249 L 46.19546436867237,179.24145642034384 L 44.34930056950336,175.33807102406394 L 42.8946252277828,171.27252579919633 L 41.845447662257854,167.08397416870966 L 41.21187202642331,162.81275417450064 L 40.999999999999986,158.49999999999994 L 41.211872026423336,154.1872458254993 L 41.845447662257854,149.91602583129034 L 42.894625227782804,145.72747420080367 L 44.34930056950337,141.66192897593606 L 46.19546436867235,137.75854357965605 L 48.41533705868798,134.05490974713757 L 50.98754005203956,130.58669549679956 L 53.887301627791885,127.38730162779198 L 57.08669549679959,124.48754005203955 L 60.55490974713749,121.915337058688 L 64.25854357965609,119.69546436867233 L 68.16192897593604,117.84930056950341 L 72.22747420080364,116.39462522778277 L 76.41602583129034,115.3454476622579 L 80.68724582549933,114.71187202642334 M 157.88833647598543,37.672896910194545 L 158.5,37.57601892527664 L 158.81538745911027,37.52606645908011 L 159.74243844223508,37.67289691019476 L 160.57874321598763,38.099015475955355 L 161.24243844223508,38.76271070220283 L 161.6685570079957,39.59901547595524 L 161.81538745911024,40.526066459080155 L 161.79222489951582,40.67230910480323 L 163.1281416336109,40.73793848550342 L 167.3993616278199,41.37151412133813 L 171.58791325830657,42.42069168686311 L 175.65345848317423,43.87536702858347 L 179.55684387945414,45.72153082775257 L 183.26047771197275,47.94140351776807 L 186.72869196231065,50.51360651111979 L 189.92808583131836,53.413368086872104 L 192.82784740707066,56.612761955879854 L 195.40005040042226,60.08097620621768 L 197.61992309043788,63.7846100387363 L 199.4660868896069,67.68799543501623 L 200.92076223132744,71.75354065988383 L 201.9699397968524,75.94209229037054 L 202.60351543268692,80.21331228457947 L 202.81538745911027,84.52606645908017 L 202.60351543268692,88.83882063358087 L 201.9699397968524,93.11004062778986 L 200.92076223132747,97.29859225827653 L 199.46608688960688,101.36413748314423 L 197.61992309043788,105.26752287942419 L 195.4000504004223,108.9711567119426 L 192.8278474070707,112.43937096228063 L 189.92808583131836,115.63876483128824 L 186.7286919623107,118.5385264070406 L 183.26047771197275,121.11072940039227 L 179.55684387945416,123.33060209040781 L 175.6534584831742,125.17676588957687 L 171.5879132583066,126.63144123129736 L 167.3993616278199,127.68061879682234 L 163.1281416336109,128.3141944326569 L 161.79222489951584,128.3798238133573 L 161.81538745911024,128.52606645908025 L 161.66855700799567,129.453117442205 L 161.24243844223508,130.2894222159576 L 160.57874321598766,130.95311744220498 L 159.74243844223508,131.3792360079656 L 158.81538745911027,131.52606645908023 L 158.5,131.47611399288368 L 157.88833647598543,131.3792360079656 L 157.05203170223285,130.95311744220498 L 156.38833647598543,130.28942221595753 L 155.9622179102248,129.45311744220498 L 155.81538745911027,128.52606645908025 L 155.83855001870467,128.37982381335723 L 154.5026332846096,128.3141944326569 L 150.2314132904006,127.68061879682234 L 146.04286165991388,126.6314412312974 L 141.9773164350463,125.17676588957681 L 138.07393103876635,123.33060209040784 L 134.37029720624778,121.11072940039223 L 130.90208295590986,118.53852640704069 L 127.70268908690215,115.63876483128827 L 124.80292751114982,112.43937096228065 L 122.23072451779827,108.9711567119427 L 120.01085182778264,105.26752287942413 L 118.16468802861363,101.36413748314418 L 116.71001268689307,97.2985922582765 L 115.66083512136811,93.1100406277898 L 115.02725948553358,88.83882063358092 L 114.81538745911024,84.5260664590802 L 115.02725948553358,80.21331228457949 L 115.66083512136811,75.9420922903706 L 116.71001268689307,71.75354065988383 L 118.16468802861363,67.68799543501623 L 120.01085182778262,63.78461003873632 L 122.23072451779824,60.08097620621771 L 124.80292751114982,56.612761955879854 L 127.70268908690215,53.41336808687213 L 130.90208295590986,50.51360651111978 L 134.37029720624776,47.941403517768165 L 138.07393103876635,45.72153082775261 L 141.9773164350463,43.87536702858357 L 146.0428616599139,42.42069168686295 L 150.2314132904006,41.37151412133818 L 154.50263328460957,40.73793848550356 L 155.83855001870467,40.672309104803126 L 155.81538745911027,40.526066459080276 L 155.9622179102248,39.599015475955426 L 156.38833647598543,38.76271070220288 L 157.05203170223288,38.0990154759553 L 157.88833647598543,37.672896910194545 M 32.653333781699196,38.04573981501323 L 32.50000000000001,36.881054112051885 L 32.653333781699196,35.716368409090535 L 33.102885682970026,34.631054112051885 L 33.81801948466054,33.699073596712424 L 34.75000000000001,32.98393979502191 L 35.835314297038664,32.53438789375109 L 37.0,32.381054112051885 L 38.16468570296135,32.53438789375108 L 39.25,32.98393979502191 L 40.18198051533946,33.699073596712424 L 40.897114317029974,34.631054112051885 L 41.34666621830081,35.71636840909055 L 41.5,36.88105411205189 L 41.34666621830081,38.04573981501323 L 40.89711431702999,39.131054112051885 L 40.18198051533946,40.06303462739133 L 39.25,40.77816842908186 L 38.16468570296135,41.227720330352696 L 37.0,41.38105411205188 L 35.83531429703865,41.22772033035269 L 34.75,40.77816842908185 L 33.81801948466054,40.063034627391346 L 33.102885682970026,39.131054112051885 L 32.653333781699196,38.04573981501323 M 32.653333781699175,281.16468570296126 L 32.49999999999996,279.99999999999994 L 32.6533337816992,278.83531429703856 L 33.10288568297004,277.74999999999994 L 33.81801948466054,276.81801948466045 L 34.749999999999986,276.10288568296994 L 35.835314297038664,275.65333378169913 L 36.999999999999986,275.4999999999999 L 38.16468570296138,275.65333378169913 L 39.25,276.10288568296994 L 40.18198051533949,276.8180194846604 L 40.89711431703,277.74999999999983 L 41.3466662183008,278.83531429703856 L 41.5,279.99999999999994 L 41.346666218300825,281.16468570296126 L 40.89711431702999,282.2499999999999 L 40.181980515339475,283.18198051533943 L 39.25000000000003,283.89711431702983 L 38.164685702961364,284.34666621830075 L 37.0,284.49999999999994 L 35.835314297038664,284.3466662183007 L 34.74999999999998,283.8971143170299 L 33.8180194846605,283.18198051533943 L 33.10288568297005,282.24999999999994 L 32.653333781699175,281.16468570296126 "
  />
  <path id="face0-interior"
 style="fill:none;stroke:#FF0000;stroke-width:1;stroke-miterlimit:4;stroke-dasharray:none;stroke-linejoin:round;stroke-linecap:round"
        d="M 10.0,16.999999999999996 M 10.000000000000018,299.99999999999994 M 10.23851921597656,301.81173331571756 M 10.937822173508932,303.49999999999994 M 12.050252531694149,304.94974746830576 M 13.500000000000007,306.062177826491 M 15.188266684282357,306.7614807840234 M 17.000000000000004,306.99999999999994 M 300.0000000000001,306.99999999999994 M 301.81173331571785,306.76148078402343 M 303.5000000000001,306.06217782649117 M 304.94974746830593,304.9497474683059 M 306.06217782649117,303.49999999999994 M 306.7614807840236,301.81173331571756 M 307.00000000000006,300.0 M 307.0,16.999999999999996 M 306.76148078402343,15.18826668428251 M 306.06217782649105,13.500000000000595 M 304.9497474683058,12.050252531692173 M 303.5000000000001,10.937822173511229 M 301.8117333157177,10.23851921597808 M 300.0000000000001,10.000000000000348 M 17.0,10.0 M 15.188266684282354,10.23851921597652 M 13.5,10.937822173508927 M 12.050252531694166,12.050252531694166 M 10.93782217350893,13.499999999999996 M 10.238519215976522,15.188266684282352 M 284.34666621830087,278.83531429703856 M 284.5000000000001,279.99999999999994 M 284.34666621830087,281.16468570296126 M 283.89711431703006,282.2499999999999 M 283.18198051533955,283.1819805153395 M 282.2500000000001,283.8971143170299 M 281.16468570296144,284.3466662183007 M 280.00000000000006,284.49999999999994 M 278.8353142970388,284.34666621830064 M 277.7500000000001,283.89711431702983 M 276.8180194846606,283.1819805153394 M 276.1028856829701,282.2499999999999 M 275.65333378169925,281.1646857029614 M 275.50000000000006,279.99999999999994 M 275.65333378169925,278.83531429703856 M 276.10288568297017,277.7499999999999 M 276.81801948466057,276.81801948466045 M 277.75000000000006,276.10288568296994 M 278.83531429703874,275.65333378169913 M 280.0000000000001,275.49999999999983 M 281.16468570296144,275.6533337816992 M 282.25000000000006,276.10288568296994 M 283.18198051533955,276.8180194846604 M 283.89711431703006,277.7499999999999 M 284.34666621830087,35.83531429703899 M 284.5000000000001,36.99999999999993 M 284.34666621830087,38.16468570296162 M 283.89711431703006,39.25000000000037 M 283.18198051533955,40.18198051533938 M 282.25000000000006,40.89711431703023 M 281.16468570296144,41.346666218301195 M 280.00000000000006,41.49999999999986 M 278.83531429703874,41.3466662183004 M 277.7500000000001,40.8971143170298 M 276.8180194846606,40.181980515339454 M 276.1028856829701,39.24999999999977 M 275.65333378169925,38.16468570296126 M 275.50000000000006,37.00000000000034 M 275.65333378169925,35.835314297038494 M 276.1028856829701,34.75000000000023 M 276.8180194846606,33.81801948466084 M 277.7500000000001,33.10288568296922 M 278.83531429703874,32.653333781699175 M 280.00000000000006,32.49999999999945 M 281.16468570296144,32.65333378169915 M 282.25000000000006,33.102885682969806 M 283.18198051533955,33.818019484660724 M 283.89711431703006,34.750000000000064 M 154.18724582549933,188.21187202642324 M 155.52316255959445,188.14624264572294 M 155.5,187.9999999999999 M 155.6468304511146,187.07294901687516 M 156.07294901687519,186.23664424312247 M 156.7366442431226,185.57294901687507 M 157.57294901687519,185.14683045111445 M 158.50000000000003,184.99999999999994 M 159.42705098312487,185.14683045111457 M 160.26335575687747,185.5729490168751 M 160.92705098312484,186.2366442431225 M 161.3531695488855,187.07294901687516 M 161.50000000000003,187.99999999999991 M 161.47683744040563,188.1462426457229 M 162.8127541745007,188.21187202642326 M 167.0839741687097,188.84544766225778 M 171.27252579919633,189.89462522778277 M 175.33807102406402,191.34930056950324 M 179.24145642034392,193.19546436867233 M 182.9450902528625,195.415337058688 M 186.4133045032004,197.9875400520395 M 189.61269837220814,200.88730162779183 M 192.51245994796042,204.0866954967996 M 195.08466294131208,207.55490974713737 M 197.30453563132764,211.25854357965602 M 199.15069943049664,215.161928975936 M 200.6053747722172,219.2274742008035 M 201.65455233774216,223.41602583129017 M 202.28812797357668,227.6872458254993 M 202.50000000000003,232.0 M 202.28812797357668,236.31275417450067 M 201.6545523377422,240.58397416870963 M 200.60537477221723,244.7725257991963 M 199.15069943049664,248.838071024064 M 197.30453563132764,252.74145642034395 M 195.08466294131205,256.4450902528623 M 192.51245994796045,259.91330450320044 M 189.61269837220811,263.112698372208 M 186.41330450320052,266.0124599479603 M 182.94509025286249,268.584662941312 M 179.24145642034392,270.80453563132767 M 175.338071024064,272.65069943049656 M 171.27252579919642,274.1053747722172 M 167.0839741687097,275.154552337742 M 162.8127541745007,275.7881279735766 M 161.4768374404056,275.85375735427704 M 161.50000000000006,276.0 M 161.3531695488855,276.92705098312484 M 160.92705098312484,277.7633557568774 M 160.2633557568775,278.4270509831248 M 159.42705098312493,278.8531695488854 M 158.50000000000003,279.0 M 157.5729490168752,278.85316954888543 M 156.73664424312258,278.42705098312484 M 156.0729490168752,277.7633557568774 M 155.64683045111457,276.92705098312484 M 155.50000000000003,275.99999999999994 M 155.52316255959445,275.85375735427704 M 154.1872458254994,275.7881279735766 M 149.91602583129045,275.1545523377421 M 145.72747420080364,274.1053747722172 M 141.66192897593606,272.65069943049656 M 137.75854357965616,270.80453563132755 M 134.05490974713754,268.58466294131193 M 130.58669549679962,266.0124599479604 M 127.38730162779191,263.112698372208 M 124.48754005203956,259.9133045032004 M 121.91533705868807,256.4450902528624 M 119.69546436867242,252.74145642034395 M 117.84930056950343,248.83807102406385 M 116.39462522778284,244.7725257991963 M 115.34544766225788,240.58397416870963 M 114.71187202642335,236.3127541745006 M 114.5,232.0 M 114.71187202642338,227.68724582549922 M 115.34544766225788,223.4160258312903 M 116.39462522778284,219.22747420080356 M 117.8493005695034,215.16192897593604 M 119.69546436867235,211.25854357965605 M 121.91533705868802,207.5549097471374 M 124.4875400520396,204.08669549679954 M 127.38730162779196,200.88730162779186 M 130.5866954967996,197.98754005203955 M 134.05490974713754,195.415337058688 M 137.75854357965613,193.1954643686724 M 141.66192897593606,191.3493005695033 M 145.72747420080364,189.89462522778277 M 149.91602583129037,188.84544766225778 M 227.68724582549933,114.71187202642338 M 229.0231625595945,114.64624264572286 M 229.00000000000003,114.5000000000001 M 229.1468304511146,113.57294901687519 M 229.57294901687519,112.7366442431226 M 230.2366442431226,112.07294901687509 M 231.07294901687519,111.64683045111443 M 232.00000000000003,111.50000000000001 M 232.9270509831249,111.64683045111454 M 233.76335575687747,112.07294901687509 M 234.42705098312487,112.73664424312261 M 234.8531695488855,113.57294901687516 M 235.00000000000003,114.49999999999999 M 234.9768374404056,114.64624264572294 M 236.31275417450064,114.71187202642342 M 240.5839741687097,115.34544766225791 M 244.77252579919636,116.39462522778278 M 248.83807102406405,117.84930056950338 M 252.74145642034392,119.69546436867242 M 256.44509025286254,121.91533705868798 M 259.9133045032004,124.48754005203963 M 263.1126983722081,127.38730162779196 M 266.01245994796045,130.58669549679965 M 268.58466294131205,134.05490974713751 M 270.80453563132767,137.7585435796562 M 272.6506994304967,141.6619289759361 M 274.1053747722172,145.72747420080367 M 275.1545523377422,149.91602583129034 M 275.7881279735767,154.18724582549933 M 276.00000000000006,158.50000000000006 M 275.78812797357676,162.81275417450058 M 275.1545523377422,167.08397416870972 M 274.10537477221726,171.27252579919633 M 272.6506994304967,175.338071024064 M 270.80453563132767,179.24145642034384 M 268.5846629413121,182.94509025286246 M 266.01245994796045,186.4133045032004 M 263.1126983722082,189.61269837220811 M 259.9133045032005,192.51245994796045 M 256.44509025286254,195.0846629413119 M 252.74145642034392,197.30453563132758 M 248.83807102406402,199.15069943049664 M 244.77252579919642,200.6053747722172 M 240.5839741687097,201.6545523377421 M 236.31275417450064,202.28812797357674 M 234.9768374404056,202.35375735427715 M 235.00000000000003,202.50000000000006 M 234.8531695488855,203.42705098312493 M 234.42705098312487,204.26335575687747 M 233.76335575687747,204.92705098312493 M 232.9270509831249,205.35316954888555 M 232.00000000000003,205.50000000000003 M 231.07294901687519,205.35316954888555 M 230.2366442431226,204.92705098312496 M 229.57294901687519,204.26335575687747 M 229.1468304511146,203.4270509831249 M 229.00000000000003,202.50000000000003 M 229.02316255959445,202.35375735427712 M 227.6872458254994,202.28812797357668 M 223.41602583129043,201.65455233774213 M 219.22747420080364,200.60537477221715 M 215.16192897593606,199.15069943049664 M 211.25854357965613,197.30453563132767 M 207.55490974713751,195.08466294131196 M 204.0866954967996,192.5124599479604 M 200.88730162779194,189.61269837220806 M 197.9875400520396,186.4133045032004 M 195.41533705868804,182.94509025286249 M 193.19546436867242,179.24145642034392 M 191.34930056950344,175.33807102406388 M 189.89462522778283,171.27252579919633 M 188.84544766225787,167.08397416870972 M 188.21187202642335,162.81275417450072 M 188.0,158.50000000000003 M 188.21187202642335,154.18724582549933 M 188.8454476622579,149.91602583129034 M 189.89462522778285,145.72747420080367 M 191.3493005695034,141.66192897593606 M 193.1954643686724,137.75854357965613 M 195.41533705868798,134.05490974713763 M 197.98754005203958,130.58669549679968 M 200.8873016277919,127.38730162779196 M 204.08669549679962,124.48754005203963 M 207.55490974713754,121.91533705868807 M 211.25854357965616,119.69546436867238 M 215.16192897593606,117.84930056950341 M 219.22747420080364,116.39462522778287 M 223.41602583129037,115.34544766225784 M 80.68724582549933,114.71187202642334 M 82.02316255959443,114.64624264572294 M 82.0,114.50000000000003 M 82.14683045111455,113.57294901687517 M 82.57294901687516,112.73664424312258 M 83.23664424312258,112.07294901687516 M 84.07294901687516,111.64683045111452 M 85.0,111.49999999999999 M 85.92705098312483,111.64683045111454 M 86.7633557568774,112.07294901687516 M 87.42705098312483,112.73664424312261 M 87.85316954888545,113.57294901687517 M 87.99999999999999,114.50000000000001 M 87.97683744040557,114.64624264572292 M 89.31275417450067,114.71187202642334 M 93.58397416870964,115.34544766225791 M 97.77252579919633,116.39462522778277 M 101.83807102406396,117.84930056950338 M 105.74145642034388,119.69546436867233 M 109.44509025286247,121.91533705868802 M 112.91330450320038,124.48754005203952 M 116.11269837220809,127.38730162779196 M 119.01245994796041,130.58669549679956 M 121.58466294131198,134.05490974713746 M 123.80453563132758,137.75854357965608 M 125.65069943049662,141.66192897593598 M 127.10537477221717,145.72747420080367 M 128.15455233774213,149.9160258312903 M 128.78812797357665,154.18724582549936 M 129.0,158.49999999999991 M 128.78812797357665,162.81275417450064 M 128.15455233774213,167.08397416870966 M 127.10537477221722,171.2725257991963 M 125.65069943049662,175.33807102406402 M 123.80453563132764,179.24145642034387 M 121.58466294131202,182.9450902528625 M 119.01245994796041,186.4133045032004 M 116.11269837220809,189.6126983722081 M 112.91330450320042,192.51245994796042 M 109.44509025286249,195.08466294131193 M 105.74145642034391,197.30453563132767 M 101.83807102406398,199.15069943049667 M 97.77252579919636,200.60537477221723 M 93.58397416870964,201.65455233774216 M 89.31275417450065,202.2881279735767 M 87.97683744040557,202.35375735427704 M 88.0,202.50000000000003 M 87.85316954888546,203.42705098312481 M 87.42705098312481,204.2633557568774 M 86.76335575687739,204.92705098312484 M 85.92705098312484,205.35316954888543 M 85.00000000000001,205.50000000000003 M 84.07294901687514,205.35316954888546 M 83.23664424312258,204.92705098312484 M 82.57294901687519,204.2633557568774 M 82.14683045111454,203.42705098312484 M 82.00000000000003,202.50000000000006 M 82.0231625595944,202.35375735427704 M 80.68724582549932,202.28812797357668 M 76.41602583129036,201.65455233774216 M 72.22747420080361,200.60537477221723 M 68.16192897593604,199.15069943049667 M 64.25854357965609,197.30453563132764 M 60.554909747137486,195.08466294131196 M 57.086695496799585,192.51245994796042 M 53.887301627791885,189.61269837220811 M 50.98754005203954,186.4133045032004 M 48.415337058688024,182.94509025286249 M 46.19546436867237,179.24145642034384 M 44.34930056950336,175.33807102406394 M 42.8946252277828,171.27252579919633 M 41.845447662257854,167.08397416870966 M 41.21187202642331,162.81275417450064 M 40.999999999999986,158.49999999999994 M 41.211872026423336,154.1872458254993 M 41.845447662257854,149.91602583129034 M 42.894625227782804,145.72747420080367 M 44.34930056950337,141.66192897593606 M 46.19546436867235,137.75854357965605 M 48.41533705868798,134.05490974713757 M 50.98754005203956,130.58669549679956 M 53.887301627791885,127.38730162779198 M 57.08669549679959,124.48754005203955 M 60.55490974713749,121.915337058688 M 64.25854357965609,119.69546436867233 M 68.16192897593604,117.84930056950341 M 72.22747420080364,116.39462522778277 M 76.41602583129034,115.3454476622579 M 157.88833647598543,37.672896910194545 M 158.5,37.57601892527664 M 158.81538745911027,37.52606645908011 M 159.74243844223508,37.67289691019476 M 160.57874321598763,38.099015475955355 M 161.24243844223508,38.76271070220283 M 161.6685570079957,39.59901547595524 M 161.81538745911024,40.526066459080155 M 161.79222489951582,40.67230910480323 M 163.1281416336109,40.73793848550342 M 167.3993616278199,41.37151412133813 M 171.58791325830657,42.42069168686311 M 175.65345848317423,43.87536702858347 M 179.55684387945414,45.72153082775257 M 183.26047771197275,47.94140351776807 M 186.72869196231065,50.51360651111979 M 189.92808583131836,53.413368086872104 M 192.82784740707066,56.612761955879854 M 195.40005040042226,60.08097620621768 M 197.61992309043788,63.7846100387363 M 199.4660868896069,67.68799543501623 M 200.92076223132744,71.75354065988383 M 201.9699397968524,75.94209229037054 M 202.60351543268692,80.21331228457947 M 202.81538745911027,84.52606645908017 M 202.60351543268692,88.83882063358087 M 201.9699397968524,93.11004062778986 M 200.92076223132747,97.29859225827653 M 199.46608688960688,101.36413748314423 M 197.61992309043788,105.26752287942419 M 195.4000504004223,108.9711567119426 M 192.8278474070707,112.43937096228063 M 189.92808583131836,115.63876483128824 M 186.7286919623107,118.5385264070406 M 183.26047771197275,121.11072940039227 M 179.55684387945416,123.33060209040781 M 175.6534584831742,125.17676588957687 M 171.5879132583066,126.63144123129736 M 167.3993616278199,127.68061879682234 M 163.1281416336109,128.3141944326569 M 161.79222489951584,128.3798238133573 M 161.81538745911024,128.52606645908025 M 161.66855700799567,129.453117442205 M 161.24243844223508,130.2894222159576 M 160.57874321598766,130.95311744220498 M 159.74243844223508,131.3792360079656 M 158.81538745911027,131.52606645908023 M 158.5,131.47611399288368 M 157.88833647598543,131.3792360079656 M 157.05203170223285,130.95311744220498 M 156.38833647598543,130.28942221595753 M 155.9622179102248,129.45311744220498 M 155.81538745911027,128.52606645908025 M 155.83855001870467,128.37982381335723 M 154.5026332846096,128.3141944326569 M 150.2314132904006,127.68061879682234 M 146.04286165991388,126.6314412312974 M 141.9773164350463,125.17676588957681 M 138.07393103876635,123.33060209040784 M 134.37029720624778,121.11072940039223 M 130.90208295590986,118.53852640704069 M 127.70268908690215,115.63876483128827 M 124.80292751114982,112.43937096228065 M 122.23072451779827,108.9711567119427 M 120.01085182778264,105.26752287942413 M 118.16468802861363,101.36413748314418 M 116.71001268689307,97.2985922582765 M 115.66083512136811,93.1100406277898 M 115.02725948553358,88.83882063358092 M 114.81538745911024,84.5260664590802 M 115.02725948553358,80.21331228457949 M 115.66083512136811,75.9420922903706 M 116.71001268689307,71.75354065988383 M 118.16468802861363,67.68799543501623 M 120.01085182778262,63.78461003873632 M 122.23072451779824,60.08097620621771 M 124.80292751114982,56.612761955879854 M 127.70268908690215,53.41336808687213 M 130.90208295590986,50.51360651111978 M 134.37029720624776,47.941403517768165 M 138.07393103876635,45.72153082775261 M 141.9773164350463,43.87536702858357 M 146.0428616599139,42.42069168686295 M 150.2314132904006,41.37151412133818 M 154.50263328460957,40.73793848550356 M 155.83855001870467,40.672309104803126 M 155.81538745911027,40.526066459080276 M 155.9622179102248,39.599015475955426 M 156.38833647598543,38.76271070220288 M 157.05203170223288,38.0990154759553 M 32.653333781699196,38.04573981501323 M 32.50000000000001,36.881054112051885 M 32.653333781699196,35.716368409090535 M 33.102885682970026,34.631054112051885 M 33.81801948466054,33.699073596712424 M 34.75000000000001,32.98393979502191 M 35.835314297038664,32.53438789375109 M 37.0,32.381054112051885 M 38.16468570296135,32.53438789375108 M 39.25,32.98393979502191 M 40.18198051533946,33.699073596712424 M 40.897114317029974,34.631054112051885 M 41.34666621830081,35.71636840909055 M 41.5,36.88105411205189 M 41.34666621830081,38.04573981501323 M 40.89711431702999,39.131054112051885 M 40.18198051533946,40.06303462739133 M 39.25,40.77816842908186 M 38.16468570296135,41.227720330352696 M 37.0,41.38105411205188 M 35.83531429703865,41.22772033035269 M 34.75,40.77816842908185 M 33.81801948466054,40.063034627391346 M 33.102885682970026,39.131054112051885 M 32.653333781699175,281.16468570296126 M 32.49999999999996,279.99999999999994 M 32.6533337816992,278.83531429703856 M 33.10288568297004,277.74999999999994 M 33.81801948466054,276.81801948466045 M 34.749999999999986,276.10288568296994 M 35.835314297038664,275.65333378169913 M 36.999999999999986,275.4999999999999 M 38.16468570296138,275.65333378169913 M 39.25,276.10288568296994 M 40.18198051533949,276.8180194846604 M 40.89711431703,277.74999999999983 M 41.3466662183008,278.83531429703856 M 41.5,279.99999999999994 M 41.346666218300825,281.16468570296126 M 40.89711431702999,282.2499999999999 M 40.181980515339475,283.18198051533943 M 39.25000000000003,283.89711431702983 M 38.164685702961364,284.34666621830075 M 37.0,284.49999999999994 M 35.835314297038664,284.3466662183007 M 34.74999999999998,283.8971143170299 M 33.8180194846605,283.18198051533943 M 33.10288568297005,282.24999999999994 "
  />
  <path id="face0-interior"
 style="fill:none;stroke:#00FF00;stroke-width:1;stroke-miterlimit:4;stroke-dasharray:none;stroke-linejoin:round;stroke-linecap:round"
        d="M 10.0,16.999999999999996 M 10.000000000000018,299.99999999999994 M 10.23851921597656,301.81173331571756 M 10.937822173508932,303.49999999999994 M 12.050252531694149,304.94974746830576 M 13.500000000000007,306.062177826491 M 15.188266684282357,306.7614807840234 M 17.000000000000004,306.99999999999994 M 300.0000000000001,306.99999999999994 M 301.81173331571785,306.76148078402343 M 303.5000000000001,306.06217782649117 M 304.94974746830593,304.9497474683059 M 306.06217782649117,303.49999999999994 M 306.7614807840236,301.81173331571756 M 307.00000000000006,300.0 M 307.0,16.999999999999996 M 306.76148078402343,15.18826668428251 M 306.06217782649105,13.500000000000595 M 304.9497474683058,12.050252531692173 M 303.5000000000001,10.937822173511229 M 301.8117333157177,10.23851921597808 M 300.0000000000001,10.000000000000348 M 17.0,10.0 M 15.188266684282354,10.23851921597652 M 13.5,10.937822173508927 M 12.050252531694166,12.050252531694166 M 10.93782217350893,13.499999999999996 M 10.238519215976522,15.188266684282352 M 284.34666621830087,278.83531429703856 M 284.5000000000001,279.99999999999994 M 284.34666621830087,281.16468570296126 M 283.89711431703006,282.2499999999999 M 283.18198051533955,283.1819805153395 M 282.2500000000001,283.8971143170299 M 281.16468570296144,284.3466662183007 M 280.00000000000006,284.49999999999994 M 278.8353142970388,284.34666621830064 M 277.7500000000001,283.89711431702983 M 276.8180194846606,283.1819805153394 M 276.1028856829701,282.2499999999999 M 275.65333378169925,281.1646857029614 M 275.50000000000006,279.99999999999994 M 275.65333378169925,278.83531429703856 M 276.10288568297017,277.7499999999999 M 276.81801948466057,276.81801948466045 M 277.75000000000006,276.10288568296994 M 278.83531429703874,275.65333378169913 M 280.0000000000001,275.49999999999983 M 281.16468570296144,275.6533337816992 M 282.25000000000006,276.10288568296994 M 283.18198051533955,276.8180194846604 M 283.89711431703006,277.7499999999999 M 284.34666621830087,35.83531429703899 M 284.5000000000001,36.99999999999993 M 284.34666621830087,38.16468570296162 M 283.89711431703006,39.25000000000037 M 283.18198051533955,40.18198051533938 M 282.25000000000006,40.89711431703023 M 281.16468570296144,41.346666218301195 M 280.00000000000006,41.49999999999986 M 278.83531429703874,41.3466662183004 M 277.7500000000001,40.8971143170298 M 276.8180194846606,40.181980515339454 M 276.1028856829701,39.24999999999977 M 275.65333378169925,38.16468570296126 M 275.50000000000006,37.00000000000034 M 275.65333378169925,35.835314297038494 M 276.1028856829701,34.75000000000023 M 276.8180194846606,33.81801948466084 M 277.7500000000001,33.10288568296922 M 278.83531429703874,32.653333781699175 M 280.00000000000006,32.49999999999945 M 281.16468570296144,32.65333378169915 M 282.25000000000006,33.102885682969806 M 283.18198051533955,33.818019484660724 M 283.89711431703006,34.750000000000064 M 154.18724582549933,188.21187202642324 M 155.52316255959445,188.14624264572294 M 155.5,187.9999999999999 M 155.6468304511146,187.07294901687516 M 156.07294901687519,186.23664424312247 M 156.7366442431226,185.57294901687507 M 157.57294901687519,185.14683045111445 M 158.50000000000003,184.99999999999994 M 159.42705098312487,185.14683045111457 M 160.26335575687747,185.5729490168751 M 160.92705098312484,186.2366442431225 M 161.3531695488855,187.07294901687516 M 161.50000000000003,187.99999999999991 M 161.47683744040563,188.1462426457229 M 162.8127541745007,188.21187202642326 M 167.0839741687097,188.84544766225778 M 171.27252579919633,189.89462522778277 M 175.33807102406402,191.34930056950324 M 179.24145642034392,193.19546436867233 M 182.9450902528625,195.415337058688 M 186.4133045032004,197.9875400520395 M 189.61269837220814,200.88730162779183 M 192.51245994796042,204.0866954967996 M 195.08466294131208,207.55490974713737 M 197.30453563132764,211.25854357965602 M 199.15069943049664,215.161928975936 M 200.6053747722172,219.2274742008035 M 201.65455233774216,223.41602583129017 M 202.28812797357668,227.6872458254993 M 202.50000000000003,232.0 M 202.28812797357668,236.31275417450067 M 201.6545523377422,240.58397416870963 M 200.60537477221723,244.7725257991963 M 199.15069943049664,248.838071024064 M 197.30453563132764,252.74145642034395 M 195.08466294131205,256.4450902528623 M 192.51245994796045,259.91330450320044 M 189.61269837220811,263.112698372208 M 186.41330450320052,266.0124599479603 M 182.94509025286249,268.584662941312 M 179.24145642034392,270.80453563132767 M 175.338071024064,272.65069943049656 M 171.27252579919642,274.1053747722172 M 167.0839741687097,275.154552337742 M 162.8127541745007,275.7881279735766 M 161.4768374404056,275.85375735427704 M 161.50000000000006,276.0 M 161.3531695488855,276.92705098312484 M 160.92705098312484,277.7633557568774 M 160.2633557568775,278.4270509831248 M 159.42705098312493,278.8531695488854 M 158.50000000000003,279.0 M 157.5729490168752,278.85316954888543 M 156.73664424312258,278.42705098312484 M 156.0729490168752,277.7633557568774 M 155.64683045111457,276.92705098312484 M 155.50000000000003,275.99999999999994 M 155.52316255959445,275.85375735427704 M 154.1872458254994,275.7881279735766 M 149.91602583129045,275.1545523377421 M 145.72747420080364,274.1053747722172 M 141.66192897593606,272.65069943049656 M 137.75854357965616,270.80453563132755 M 134.05490974713754,268.58466294131193 M 130.58669549679962,266.0124599479604 M 127.38730162779191,263.112698372208 M 124.48754005203956,259.9133045032004 M 121.91533705868807,256.4450902528624 M 119.69546436867242,252.74145642034395 M 117.84930056950343,248.83807102406385 M 116.39462522778284,244.7725257991963 M 115.34544766225788,240.58397416870963 M 114.71187202642335,236.3127541745006 M 114.5,232.0 M 114.71187202642338,227.68724582549922 M 115.34544766225788,223.4160258312903 M 116.39462522778284,219.22747420080356 M 117.8493005695034,215.16192897593604 M 119.69546436867235,211.25854357965605 M 121.91533705868802,207.5549097471374 M 124.4875400520396,204.08669549679954 M 127.38730162779196,200.88730162779186 M 130.5866954967996,197.98754005203955 M 134.05490974713754,195.415337058688 M 137.75854357965613,193.1954643686724 M 141.66192897593606,191.3493005695033 M 145.72747420080364,189.89462522778277 M 149.91602583129037,188.84544766225778 M 227.68724582549933,114.71187202642338 M 229.0231625595945,114.64624264572286 M 229.00000000000003,114.5000000000001 M 229.1468304511146,113.57294901687519 M 229.57294901687519,112.7366442431226 M 230.2366442431226,112.07294901687509 M 231.07294901687519,111.64683045111443 M 232.00000000000003,111.50000000000001 M 232.9270509831249,111.64683045111454 M 233.76335575687747,112.07294901687509 M 234.42705098312487,112.73664424312261 M 234.8531695488855,113.57294901687516 M 235.00000000000003,114.49999999999999 M 234.9768374404056,114.64624264572294 M 236.31275417450064,114.71187202642342 M 240.5839741687097,115.34544766225791 M 244.77252579919636,116.39462522778278 M 248.83807102406405,117.84930056950338 M 252.74145642034392,119.69546436867242 M 256.44509025286254,121.91533705868798 M 259.9133045032004,124.48754005203963 M 263.1126983722081,127.38730162779196 M 266.01245994796045,130.58669549679965 M 268.58466294131205,134.05490974713751 M 270.80453563132767,137.7585435796562 M 272.6506994304967,141.6619289759361 M 274.1053747722172,145.72747420080367 M 275.1545523377422,149.91602583129034 M 275.7881279735767,154.18724582549933 M 276.00000000000006,158.50000000000006 M 275.78812797357676,162.81275417450058 M 275.1545523377422,167.08397416870972 M 274.10537477221726,171.27252579919633 M 272.6506994304967,175.338071024064 M 270.80453563132767,179.24145642034384 M 268.5846629413121,182.94509025286246 M 266.01245994796045,186.4133045032004 M 263.1126983722082,189.61269837220811 M 259.9133045032005,192.51245994796045 M 256.44509025286254,195.0846629413119 M 252.74145642034392,197.30453563132758 M 248.83807102406402,199.15069943049664 M 244.77252579919642,200.6053747722172 M 240.5839741687097,201.6545523377421 M 236.31275417450064,202.28812797357674 M 234.9768374404056,202.35375735427715 M 235.00000000000003,202.50000000000006 M 234.8531695488855,203.42705098312493 M 234.42705098312487,204.26335575687747 M 233.76335575687747,204.92705098312493 M 232.9270509831249,205.35316954888555 M 232.00000000000003,205.50000000000003 M 231.07294901687519,205.35316954888555 M 230.2366442431226,204.92705098312496 M 229.57294901687519,204.26335575687747 M 229.1468304511146,203.4270509831249 M 229.00000000000003,202.50000000000003 M 229.02316255959445,202.35375735427712 M 227.6872458254994,202.28812797357668 M 223.41602583129043,201.65455233774213 M 219.22747420080364,200.60537477221715 M 215.16192897593606,199.15069943049664 M 211.25854357965613,197.30453563132767 M 207.55490974713751,195.08466294131196 M 204.0866954967996,192.5124599479604 M 200.88730162779194,189.61269837220806 M 197.9875400520396,186.4133045032004 M 195.41533705868804,182.94509025286249 M 193.19546436867242,179.24145642034392 M 191.34930056950344,175.33807102406388 M 189.89462522778283,171.27252579919633 M 188.84544766225787,167.08397416870972 M 188.21187202642335,162.81275417450072 M 188.0,158.50000000000003 M 188.21187202642335,154.18724582549933 M 188.8454476622579,149.91602583129034 M 189.89462522778285,145.72747420080367 M 191.3493005695034,141.66192897593606 M 193.1954643686724,137.75854357965613 M 195.41533705868798,134.05490974713763 M 197.98754005203958,130.58669549679968 M 200.8873016277919,127.38730162779196 M 204.08669549679962,124.48754005203963 M 207.55490974713754,121.91533705868807 M 211.25854357965616,119.69546436867238 M 215.16192897593606,117.84930056950341 M 219.22747420080364,116.39462522778287 M 223.41602583129037,115.34544766225784 M 80.68724582549933,114.71187202642334 M 82.02316255959443,114.64624264572294 M 82.0,114.50000000000003 M 82.14683045111455,113.57294901687517 M 82.57294901687516,112.73664424312258 M 83.23664424312258,112.07294901687516 M 84.07294901687516,111.64683045111452 M 85.0,111.49999999999999 M 85.92705098312483,111.64683045111454 M 86.7633557568774,112.07294901687516 M 87.42705098312483,112.73664424312261 M 87.85316954888545,113.57294901687517 M 87.99999999999999,114.50000000000001 M 87.97683744040557,114.64624264572292 M 89.31275417450067,114.71187202642334 M 93.58397416870964,115.34544766225791 M 97.77252579919633,116.39462522778277 M 101.83807102406396,117.84930056950338 M 105.74145642034388,119.69546436867233 M 109.44509025286247,121.91533705868802 M 112.91330450320038,124.48754005203952 M 116.11269837220809,127.38730162779196 M 119.01245994796041,130.58669549679956 M 121.58466294131198,134.05490974713746 M 123.80453563132758,137.75854357965608 M 125.65069943049662,141.66192897593598 M 127.10537477221717,145.72747420080367 M 128.15455233774213,149.9160258312903 M 128.78812797357665,154.18724582549936 M 129.0,158.49999999999991 M 128.78812797357665,162.81275417450064 M 128.15455233774213,167.08397416870966 M 127.10537477221722,171.2725257991963 M 125.65069943049662,175.33807102406402 M 123.80453563132764,179.24145642034387 M 121.58466294131202,182.9450902528625 M 119.01245994796041,186.4133045032004 M 116.11269837220809,189.6126983722081 M 112.91330450320042,192.51245994796042 M 109.44509025286249,195.08466294131193 M 105.74145642034391,197.30453563132767 M 101.83807102406398,199.15069943049667 M 97.77252579919636,200.60537477221723 M 93.58397416870964,201.65455233774216 M 89.31275417450065,202.2881279735767 M 87.97683744040557,202.35375735427704 M 88.0,202.50000000000003 M 87.85316954888546,203.42705098312481 M 87.42705098312481,204.2633557568774 M 86.76335575687739,204.92705098312484 M 85.92705098312484,205.35316954888543 M 85.00000000000001,205.50000000000003 M 84.07294901687514,205.35316954888546 M 83.23664424312258,204.92705098312484 M 82.57294901687519,204.2633557568774 M 82.14683045111454,203.42705098312484 M 82.00000000000003,202.50000000000006 M 82.0231625595944,202.35375735427704 M 80.68724582549932,202.28812797357668 M 76.41602583129036,201.65455233774216 M 72.22747420080361,200.60537477221723 M 68.16192897593604,199.15069943049667 M 64.25854357965609,197.30453563132764 M 60.554909747137486,195.08466294131196 M 57.086695496799585,192.51245994796042 M 53.887301627791885,189.61269837220811 M 50.98754005203954,186.4133045032004 M 48.415337058688024,182.94509025286249 M 46.19546436867237,179.24145642034384 M 44.34930056950336,175.33807102406394 M 42.8946252277828,171.27252579919633 M 41.845447662257854,167.08397416870966 M 41.21187202642331,162.81275417450064 M 40.999999999999986,158.49999999999994 M 41.211872026423336,154.1872458254993 M 41.845447662257854,149.91602583129034 M 42.894625227782804,145.72747420080367 M 44.34930056950337,141.66192897593606 M 46.19546436867235,137.75854357965605 M 48.41533705868798,134.05490974713757 M 50.98754005203956,130.58669549679956 M 53.887301627791885,127.38730162779198 M 57.08669549679959,124.48754005203955 M 60.55490974713749,121.915337058688 M 64.25854357965609,119.69546436867233 M 68.16192897593604,117.84930056950341 M 72.22747420080364,116.39462522778277 M 76.41602583129034,115.3454476622579 M 157.88833647598543,37.672896910194545 M 158.5,37.57601892527664 M 158.81538745911027,37.52606645908011 M 159.74243844223508,37.67289691019476 M 160.57874321598763,38.099015475955355 M 161.24243844223508,38.76271070220283 M 161.6685570079957,39.59901547595524 M 161.81538745911024,40.526066459080155 M 161.79222489951582,40.67230910480323 M 163.1281416336109,40.73793848550342 M 167.3993616278199,41.37151412133813 M 171.58791325830657,42.42069168686311 M 175.65345848317423,43.87536702858347 M 179.55684387945414,45.72153082775257 M 183.26047771197275,47.94140351776807 M 186.72869196231065,50.51360651111979 M 189.92808583131836,53.413368086872104 M 192.82784740707066,56.612761955879854 M 195.40005040042226,60.08097620621768 M 197.61992309043788,63.7846100387363 M 199.4660868896069,67.68799543501623 M 200.92076223132744,71.75354065988383 M 201.9699397968524,75.94209229037054 M 202.60351543268692,80.21331228457947 M 202.81538745911027,84.52606645908017 M 202.60351543268692,88.83882063358087 M 201.9699397968524,93.11004062778986 M 200.92076223132747,97.29859225827653 M 199.46608688960688,101.36413748314423 M 197.61992309043788,105.26752287942419 M 195.4000504004223,108.9711567119426 M 192.8278474070707,112.43937096228063 M 189.92808583131836,115.63876483128824 M 186.7286919623107,118.5385264070406 M 183.26047771197275,121.11072940039227 M 179.55684387945416,123.33060209040781 M 175.6534584831742,125.17676588957687 M 171.5879132583066,126.63144123129736 M 167.3993616278199,127.68061879682234 M 163.1281416336109,128.3141944326569 M 161.79222489951584,128.3798238133573 M 161.81538745911024,128.52606645908025 M 161.66855700799567,129.453117442205 M 161.24243844223508,130.2894222159576 M 160.57874321598766,130.95311744220498 M 159.74243844223508,131.3792360079656 M 158.81538745911027,131.52606645908023 M 158.5,131.47611399288368 M 157.88833647598543,131.3792360079656 M 157.05203170223285,130.95311744220498 M 156.38833647598543,130.28942221595753 M 155.9622179102248,129.45311744220498 M 155.81538745911027,128.52606645908025 M 155.83855001870467,128.37982381335723 M 154.5026332846096,128.3141944326569 M 150.2314132904006,127.68061879682234 M 146.04286165991388,126.6314412312974 M 141.9773164350463,125.17676588957681 M 138.07393103876635,123.33060209040784 M 134.37029720624778,121.11072940039223 M 130.90208295590986,118.53852640704069 M 127.70268908690215,115.63876483128827 M 124.80292751114982,112.43937096228065 M 122.23072451779827,108.9711567119427 M 120.01085182778264,105.26752287942413 M 118.16468802861363,101.36413748314418 M 116.71001268689307,97.2985922582765 M 115.66083512136811,93.1100406277898 M 115.02725948553358,88.83882063358092 M 114.81538745911024,84.5260664590802 M 115.02725948553358,80.21331228457949 M 115.66083512136811,75.9420922903706 M 116.71001268689307,71.75354065988383 M 118.16468802861363,67.68799543501623 M 120.01085182778262,63.78461003873632 M 122.23072451779824,60.08097620621771 M 124.80292751114982,56.612761955879854 M 127.70268908690215,53.41336808687213 M 130.90208295590986,50.51360651111978 M 134.37029720624776,47.941403517768165 M 138.07393103876635,45.72153082775261 M 141.9773164350463,43.87536702858357 M 146.0428616599139,42.42069168686295 M 150.2314132904006,41.37151412133818 M 154.50263328460957,40.73793848550356 M 155.83855001870467,40.672309104803126 M 155.81538745911027,40.526066459080276 M 155.9622179102248,39.599015475955426 M 156.38833647598543,38.76271070220288 M 157.05203170223288,38.0990154759553 M 32.653333781699196,38.04573981501323 M 32.50000000000001,36.881054112051885 M 32.653333781699196,35.716368409090535 M 33.102885682970026,34.631054112051885 M 33.81801948466054,33.699073596712424 M 34.75000000000001,32.98393979502191 M 35.835314297038664,32.53438789375109 M 37.0,32.381054112051885 M 38.16468570296135,32.53438789375108 M 39.25,32.98393979502191 M 40.18198051533946,33.699073596712424 M 40.897114317029974,34.631054112051885 M 41.34666621830081,35.71636840909055 M 41.5,36.88105411205189 M 41.34666621830081,38.04573981501323 M 40.89711431702999,39.131054112051885 M 40.18198051533946,40.06303462739133 M 39.25,40.77816842908186 M 38.16468570296135,41.227720330352696 M 37.0,41.38105411205188 M 35.83531429703865,41.22772033035269 M 34.75,40.77816842908185 M 33.81801948466054,40.063034627391346 M 33.102885682970026,39.131054112051885 M 32.653333781699175,281.16468570296126 M 32.49999999999996,279.99999999999994 M 32.6533337816992,278.83531429703856 M 33.10288568297004,277.74999999999994 M 33.81801948466054,276.81801948466045 M 34.749999999999986,276.10288568296994 M 35.835314297038664,275.65333378169913 M 36.999999999999986,275.4999999999999 M 38.16468570296138,275.65333378169913 M 39.25,276.10288568296994 M 40.18198051533949,276.8180194846604 M 40.89711431703,277.74999999999983 M 41.3466662183008,278.83531429703856 M 41.5,279.99999999999994 M 41.346666218300825,281.16468570296126 M 40.89711431702999,282.2499999999999 M 40.181980515339475,283.18198051533943 M 39.25000000000003,283.89711431702983 M 38.164685702961364,284.34666621830075 M 37.0,284.49999999999994 M 35.835314297038664,284.3466662183007 M 34.74999999999998,283.8971143170299 M 33.8180194846605,283.18198051533943 M 33.10288568297005,282.24999999999994 "
  />
</svg>
