<?xml version="1.0" standalone="no"?>
<!DOCTYPE svg PUBLIC "-//W3C//DTD SVG 1.1//EN" "http://www.w3.org/Graphics/SVG/1.1/DTD/svg11.dtd">
<svg width="317.00000000000006mm" height="316.99999999999994mm"
 viewBox="0 0 317.00000000000006 316.99999999999994"
 xmlns="http://www.w3.org/2000/svg" version="1.1"
 xmlns:xlink="http://www.w3.org/1999/xlink">
<desc>Output from Flights of Ideas SVG Sketchup Plugin</desc>

  <path id="face0-cut"
 style="fill:none;stroke:#0000FF;stroke-width:1;stroke-miterlimit:4;stroke-dasharray:none;stroke-linejoin:round;stroke-linecap:round"
        d="M 10.0,16.999999999999897 L 10.000000000000018,299.9999999999999 L 10.23851921597656,301.8117333157175 L 10.937822173508934,303.49999999999994 L 12.050252531694149,304.94974746830565 L 13.500000000000007,306.06217782649094 L 15.18826668428236,306.7614807840233 L 17.000000000000004,306.9999999999999 L 300.0000000000001,306.99999999999994 L 301.81173331571773,306.7614807840234 L 303.5,306.06217782649105 L 304.9497474683059,304.9497474683058 L 306.0621778264911,303.49999999999994 L 306.76148078402355,301.8117333157175 L 307.00000000000006,299.99999999999994 L 306.99999999999994,16.999999999999897 L 306.7614807840234,15.188266684287807 L 306.062177826491,13.500000000000494 L 304.9497474683058,12.050252531695978 L 303.5,10.937822173507971 L 301.8117333157177,10.23851921597658 L 300.0000000000001,10.000000000001581 L 17.0,10.0 L 15.188266684282356,10.238519215976494 L 13.500000000000002,10.937822173508861 L 12.050252531694168,12.050252531694142 L 10.93782217350893,13.500000000000016 L 10.238519215976522,15.188266684282294 L 10.0,16.999999999999897 M 284.34666621830087,278.8353142970385 L 284.5,279.9999999999999 L 284.34666621830087,281.16468570296115 L 283.89711431702995,282.2499999999998 L 283.18198051533955,283.18198051533943 L 282.25000000000006,283.89711431702983 L 281.1646857029614,284.34666621830064 L 280.00000000000006,284.49999999999994 L 278.8353142970386,284.34666621830064 L 277.75,283.89711431702983 L 276.81801948466057,283.18198051533943 L 276.10288568297005,282.2499999999999 L 275.65333378169925,281.16468570296126 L 275.5,279.9999999999999 L 275.65333378169925,278.83531429703856 L 276.10288568297005,277.7499999999999 L 276.81801948466057,276.8180194846604 L 277.75,276.1028856829699 L 278.8353142970386,275.65333378169913 L 280.00000000000006,275.49999999999983 L 281.1646857029614,275.6533337816991 L 282.25,276.1028856829698 L 283.1819805153396,276.8180194846604 L 283.89711431702995,277.7499999999999 L 284.34666621830087,278.8353142970385 M 284.34666621830087,35.835314297038884 L 284.5,36.99999999999982 L 284.34666621830087,38.16468570296151 L 283.89711431702995,39.249999999999886 L 283.18198051533943,40.181980515339276 L 282.25,40.897114317029775 L 281.1646857029614,41.346666218301095 L 280.00000000000006,41.49999999999976 L 278.8353142970386,41.34666621830097 L 277.75,40.89711431703003 L 276.8180194846606,40.18198051533935 L 276.10288568297005,39.24999999999966 L 275.65333378169925,38.16468570296116 L 275.5,36.99999999999984 L 275.65333378169925,35.835314297039226 L 276.10288568297005,34.75000000000012 L 276.81801948466057,33.81801948466027 L 277.75,33.10288568297011 L 278.8353142970386,32.65333378169906 L 280.00000000000006,32.49999999999987 L 281.1646857029614,32.65333378169905 L 282.25,33.1028856829697 L 283.18198051533943,33.81801948466062 L 283.89711431702995,34.750000000000426 L 284.34666621830087,35.835314297038884 M 299.99999999999994,221.99999999999986 L 293.0,221.99999999999991 L 293.0,193.9999999999999 L 300.0,193.99999999999994 L 299.99999999999994,221.99999999999986 M 299.99999999999994,94.99999999999977 L 299.99999999999994,122.99999999999989 L 293.0,122.99999999999986 L 293.0,94.99999999999989 L 299.99999999999994,94.99999999999977 M 122.99999999999997,16.999999999999897 L 122.99999999999997,23.999999999999947 L 94.99999999999994,23.999999999999986 L 94.99999999999994,16.999999999999897 L 122.99999999999997,16.999999999999897 M 221.99999999999986,16.999999999999897 L 221.99999999999986,23.9999999999992 L 194.0,23.99999999999922 L 193.99999999999997,16.999999999999897 L 221.99999999999986,16.999999999999897 M 95.00000000000006,300.0 L 95.00000000000011,293.0 L 123.00000000000009,293.0 L 123.00000000000009,300.00000000000006 L 95.00000000000006,300.0 M 221.99999999999994,299.99999999999994 L 194.0000000000001,299.99999999999994 L 194.00000000000014,293.0 L 221.99999999999994,293.0 L 221.99999999999994,299.99999999999994 M 16.999999999999954,94.99999999999989 L 23.99999999999996,94.99999999999989 L 23.999999999999957,122.99999999999996 L 16.99999999999997,122.99999999999997 L 16.999999999999954,94.99999999999989 M 16.99999999999998,222.00000000000009 L 16.99999999999997,194.0 L 23.999999999999993,194.0 L 24.00000000000001,222.00000000000009 L 16.99999999999998,222.00000000000009 M 32.6533337816992,38.04573981501321 L 32.5,36.88105411205189 L 32.6533337816992,35.716368409090485 L 33.10288568297003,34.631054112051864 L 33.81801948466054,33.6990735967124 L 34.75000000000001,32.98393979502187 L 35.83531429703866,32.53438789375109 L 37.0,32.38105411205183 L 38.16468570296134,32.53438789375108 L 39.25,32.983939795021875 L 40.18198051533946,33.699073596712395 L 40.897114317029974,34.63105411205187 L 41.34666621830081,35.71636840909049 L 41.50000000000001,36.881054112051885 L 41.346666218300804,38.0457398150132 L 40.897114317029974,39.13105411205183 L 40.18198051533946,40.063034627391346 L 39.25,40.77816842908187 L 38.16468570296134,41.22772033035274 L 37.0,41.3810541120519 L 35.83531429703866,41.227720330352746 L 34.75,40.77816842908187 L 33.81801948466054,40.063034627391346 L 33.10288568297003,39.13105411205183 L 32.6533337816992,38.04573981501321 M 32.653333781699175,281.16468570296115 L 32.49999999999997,279.9999999999999 L 32.65333378169915,278.8353142970385 L 33.10288568296998,277.7499999999999 L 33.818019484660496,276.8180194846604 L 34.749999999999986,276.1028856829699 L 35.83531429703867,275.6533337816991 L 36.99999999999999,275.4999999999998 L 38.16468570296133,275.6533337816991 L 39.25,276.1028856829699 L 40.1819805153395,276.81801948466034 L 40.89711431703001,277.74999999999983 L 41.3466662183008,278.8353142970385 L 41.500000000000014,279.99999999999994 L 41.34666621830083,281.1646857029612 L 40.897114317029995,282.24999999999983 L 40.181980515339475,283.1819805153394 L 39.24999999999998,283.8971143170298 L 38.16468570296137,284.3466662183007 L 37.0,284.4999999999999 L 35.83531429703868,284.3466662183007 L 34.749999999999986,283.89711431702983 L 33.81801948466051,283.1819805153394 L 33.10288568297,282.24999999999994 L 32.653333781699175,281.16468570296115 M 129.00000000000003,158.49999999999966 L 128.7881279735767,162.81275417450047 L 128.15455233774216,167.0839741687095 L 127.10537477221723,171.2725257991961 L 125.65069943049662,175.33807102406382 L 123.80453563132767,179.24145642034358 L 121.58466294131205,182.94509025286223 L 119.01245994796048,186.41330450320012 L 116.11269837220811,189.61269837220783 L 112.91330450320046,192.5124599479602 L 109.44509025286251,195.08466294131173 L 105.74145642034395,197.3045356313274 L 101.83807102406399,199.15069943049645 L 97.77252579919636,200.605374772217 L 93.58397416870969,201.6545523377419 L 89.31275417450067,202.2881279735765 L 87.97683744040557,202.3537573542768 L 88.00000000000003,202.4999999999998 L 87.85316954888546,203.4270509831246 L 87.42705098312487,204.26335575687716 L 86.76335575687744,204.92705098312462 L 85.92705098312484,205.3531695488852 L 85.00000000000006,205.49999999999972 L 84.07294901687519,205.3531695488852 L 83.23664424312261,204.92705098312456 L 82.57294901687519,204.26335575687713 L 82.1468304511146,203.4270509831246 L 82.00000000000003,202.49999999999983 L 82.02316255959445,202.35375735427684 L 80.68724582549933,202.28812797357648 L 76.4160258312904,201.6545523377419 L 72.22747420080367,200.60537477221698 L 68.16192897593609,199.15069943049645 L 64.2585435796561,197.30453563132744 L 60.55490974713749,195.08466294131176 L 57.08669549679961,192.51245994796022 L 53.88730162779193,189.61269837220783 L 50.987540052039584,186.41330450320015 L 48.41533705868803,182.94509025286223 L 46.19546436867241,179.24145642034358 L 44.3493005695034,175.33807102406365 L 42.89462522778282,171.2725257991961 L 41.845447662257875,167.08397416870943 L 41.21187202642336,162.81275417450044 L 41.000000000000014,158.49999999999966 L 41.211872026423364,154.18724582549902 L 41.845447662257854,149.91602583128997 L 42.89462522778284,145.7274742008033 L 44.3493005695034,141.66192897593578 L 46.195464368672376,137.75854357965574 L 48.415337058688,134.05490974713726 L 50.987540052039584,130.5866954967994 L 53.887301627791906,127.38730162779163 L 57.0866954967996,124.48754005203925 L 60.55490974713752,121.9153370586877 L 64.2585435796561,119.69546436867192 L 68.16192897593606,117.84930056950296 L 72.22747420080367,116.39462522778234 L 76.41602583129034,115.34544766225747 L 80.68724582549933,114.71187202642292 L 82.02316255959443,114.6462426457225 L 82.00000000000003,114.49999999999957 L 82.14683045111457,113.57294901687476 L 82.57294901687519,112.73664424312216 L 83.23664424312261,112.07294901687474 L 84.07294901687519,111.64683045111417 L 85.00000000000003,111.4999999999996 L 85.92705098312484,111.64683045111418 L 86.76335575687742,112.07294901687476 L 87.42705098312484,112.73664424312219 L 87.85316954888546,113.57294901687474 L 88.00000000000003,114.49999999999959 L 87.9768374404056,114.64624264572252 L 89.31275417450067,114.71187202642292 L 93.58397416870969,115.34544766225747 L 97.77252579919636,116.39462522778236 L 101.83807102406396,117.84930056950296 L 105.74145642034392,119.69546436867189 L 109.44509025286251,121.91533705868771 L 112.91330450320041,124.48754005203922 L 116.11269837220814,127.38730162779162 L 119.01245994796045,130.58669549679936 L 121.58466294131199,134.05490974713726 L 123.80453563132764,137.75854357965576 L 125.65069943049664,141.6619289759356 L 127.10537477221723,145.72747420080327 L 128.15455233774216,149.91602583129 L 128.7881279735767,154.187245825499 L 129.00000000000003,158.49999999999966 M 188.00000000000003,158.49999999999991 L 188.21187202642338,154.18724582549905 L 188.8454476622579,149.91602583128994 L 189.89462522778288,145.72747420080333 L 191.34930056950344,141.6619289759358 L 193.19546436867242,137.7585435796559 L 195.41533705868804,134.0549097471372 L 197.9875400520396,130.58669549679945 L 200.88730162779197,127.3873016277917 L 204.08669549679962,124.48754005203922 L 207.55490974713746,121.91533705868774 L 211.25854357965616,119.69546436867209 L 215.16192897593595,117.84930056950293 L 219.22747420080356,116.39462522778257 L 223.4160258312903,115.34544766225738 L 227.68724582549922,114.71187202642287 L 229.02316255959434,114.64624264572244 L 228.99999999999997,114.49999999999963 L 229.1468304511145,113.5729490168747 L 229.57294901687513,112.73664424312211 L 230.2366442431225,112.07294901687474 L 231.07294901687507,111.64683045111414 L 231.99999999999991,111.49999999999959 L 232.9270509831248,111.64683045111427 L 233.76335575687736,112.07294901687473 L 234.42705098312481,112.73664424312214 L 234.8531695488854,113.57294901687466 L 235.00000000000006,114.49999999999957 L 234.9768374404055,114.6462426457225 L 236.31275417450064,114.71187202642287 L 240.58397416870963,115.34544766225747 L 244.7725257991963,116.39462522778234 L 248.8380710240639,117.84930056950299 L 252.74145642034384,119.69546436867205 L 256.4450902528624,121.91533705868774 L 259.91330450320027,124.48754005203925 L 263.112698372208,127.38730162779166 L 266.01245994796034,130.58669549679945 L 268.584662941312,134.0549097471373 L 270.80453563132755,137.75854357965596 L 272.65069943049656,141.66192897593578 L 274.10537477221715,145.72747420080333 L 275.1545523377421,149.91602583128994 L 275.7881279735767,154.18724582549905 L 275.99999999999994,158.4999999999999 L 275.78812797357665,162.81275417450053 L 275.1545523377421,167.08397416870946 L 274.1053747722173,171.27252579919605 L 272.65069943049656,175.33807102406388 L 270.80453563132755,179.24145642034378 L 268.584662941312,182.94509025286231 L 266.01245994796045,186.41330450320018 L 263.112698372208,189.61269837220783 L 259.9133045032004,192.51245994796017 L 256.4450902528624,195.08466294131173 L 252.74145642034384,197.3045356313274 L 248.8380710240639,199.15069943049642 L 244.7725257991963,200.605374772217 L 240.58397416870963,201.65455233774188 L 236.31275417450064,202.28812797357645 L 234.9768374404055,202.35375735427692 L 234.99999999999997,202.4999999999998 L 234.8531695488854,203.4270509831247 L 234.42705098312481,204.26335575687725 L 233.76335575687736,204.92705098312462 L 232.9270509831248,205.35316954888532 L 231.99999999999991,205.49999999999986 L 231.07294901687516,205.3531695488852 L 230.2366442431225,204.9270509831247 L 229.57294901687513,204.26335575687727 L 229.1468304511145,203.4270509831247 L 228.99999999999997,202.49999999999983 L 229.02316255959434,202.35375735427695 L 227.6872458254993,202.28812797357654 L 223.4160258312904,201.6545523377419 L 219.22747420080356,200.60537477221703 L 215.16192897593595,199.15069943049645 L 211.2585435796561,197.3045356313274 L 207.55490974713746,195.0846629413117 L 204.08669549679962,192.51245994796017 L 200.88730162779197,189.61269837220786 L 197.9875400520396,186.41330450320018 L 195.41533705868807,182.94509025286223 L 193.19546436867242,179.2414564203438 L 191.34930056950344,175.33807102406362 L 189.89462522778288,171.2725257991962 L 188.8454476622579,167.08397416870946 L 188.21187202642338,162.8127541745004 L 188.00000000000003,158.49999999999991 M 158.50000000000006,184.99999999999977 L 159.42705098312493,185.14683045111434 L 160.2633557568775,185.57294901687493 L 160.9270509831249,186.23664424312219 L 161.35316954888552,187.07294901687493 L 161.50000000000006,187.9999999999997 L 161.47683744040563,188.14624264572277 L 162.81275417450072,188.211872026423 L 167.0839741687097,188.84544766225756 L 171.2725257991964,189.89462522778257 L 175.33807102406405,191.3493005695031 L 179.24145642034398,193.19546436867202 L 182.9450902528625,195.41533705868773 L 186.41330450320044,197.9875400520393 L 189.61269837220814,200.88730162779163 L 192.51245994796045,204.08669549679934 L 195.08466294131208,207.55490974713723 L 197.3045356313277,211.25854357965582 L 199.15069943049667,215.1619289759358 L 200.60537477221726,219.22747420080333 L 201.6545523377422,223.41602583128997 L 202.28812797357676,227.68724582549905 L 202.50000000000003,231.99999999999986 L 202.28812797357676,236.31275417450047 L 201.6545523377422,240.58397416870943 L 200.60537477221726,244.77252579919613 L 199.15069943049667,248.8380710240638 L 197.30453563132767,252.74145642034372 L 195.08466294131208,256.4450902528622 L 192.5124599479605,259.91330450320015 L 189.61269837220814,263.1126983722078 L 186.41330450320052,266.0124599479601 L 182.94509025286254,268.58466294131176 L 179.24145642034398,270.8045356313274 L 175.33807102406405,272.6506994304964 L 171.27252579919647,274.10537477221703 L 167.08397416870966,275.15455233774185 L 162.81275417450072,275.78812797357637 L 161.47683744040563,275.8537573542768 L 161.50000000000006,275.9999999999997 L 161.35316954888552,276.92705098312456 L 160.9270509831249,277.7633557568772 L 160.26335575687747,278.4270509831246 L 159.42705098312493,278.8531695488852 L 158.50000000000006,278.99999999999983 L 157.57294901687519,278.8531695488852 L 156.73664424312264,278.4270509831246 L 156.07294901687519,277.76335575687716 L 155.64683045111462,276.9270509831246 L 155.50000000000003,275.9999999999998 L 155.52316255959454,275.85375735427675 L 154.18724582549942,275.78812797357637 L 149.91602583129043,275.1545523377419 L 145.7274742008037,274.1053747722169 L 141.6619289759361,272.65069943049633 L 137.75854357965613,270.80453563132744 L 134.05490974713757,268.58466294131176 L 130.58669549679965,266.0124599479602 L 127.387301627792,263.1126983722078 L 124.4875400520396,259.91330450320015 L 121.9153370586881,256.4450902528622 L 119.69546436867242,252.74145642034372 L 117.84930056950341,248.83807102406368 L 116.39462522778285,244.7725257991961 L 115.34544766225795,240.58397416870937 L 114.71187202642338,236.3127541745004 L 114.50000000000009,231.99999999999977 L 114.7118720264234,227.68724582549902 L 115.34544766225793,223.4160258312901 L 116.39462522778288,219.22747420080333 L 117.84930056950344,215.16192897593587 L 119.69546436867242,211.25854357965574 L 121.91533705868807,207.55490974713717 L 124.48754005203963,204.08669549679934 L 127.387301627792,200.88730162779163 L 130.58669549679962,197.9875400520393 L 134.05490974713754,195.41533705868775 L 137.75854357965616,193.19546436867216 L 141.66192897593606,191.34930056950307 L 145.72747420080367,189.89462522778257 L 149.9160258312904,188.8454476622575 L 154.18724582549936,188.21187202642295 L 155.52316255959448,188.14624264572274 L 155.50000000000006,187.99999999999963 L 155.64683045111462,187.07294901687496 L 156.0729490168752,186.23664424312224 L 156.73664424312264,185.57294901687496 L 157.5729490168752,185.14683045111434 L 158.50000000000006,184.99999999999977 M 158.50000000000003,131.47611399288343 L 157.88833647598545,131.37923600796537 L 157.05203170223288,130.95311744220473 L 156.38833647598545,130.2894222159573 L 155.9622179102248,129.45311744220476 L 155.8153874591103,128.52606645908003 L 155.8385500187047,128.37982381335692 L 154.50263328460963,128.31419443265662 L 150.23141329040064,127.68061879682209 L 146.04286165991397,126.63144123129695 L 141.97731643504633,125.17676588957656 L 138.07393103876637,123.3306020904074 L 134.37029720624778,121.11072940039183 L 130.9020829559099,118.5385264070403 L 127.70268908690218,115.63876483128797 L 124.80292751114985,112.43937096228024 L 122.23072451779831,108.97115671194241 L 120.01085182778269,105.26752287942372 L 118.16468802861365,101.36413748314372 L 116.7100126868931,97.29859225827612 L 115.66083512136814,93.11004062778949 L 115.02725948553362,88.83882063358067 L 114.81538745911027,84.52606645907994 L 115.02725948553362,80.21331228457942 L 115.66083512136814,75.94209229037038 L 116.7100126868931,71.75354065988378 L 118.16468802861365,67.68799543501608 L 120.01085182778266,63.78461003873616 L 122.23072451779828,60.080976206217684 L 124.80292751114985,56.61276195587976 L 127.70268908690218,53.41336808687207 L 130.9020829559099,50.513606511119846 L 134.37029720624778,47.94140351776807 L 138.07393103876637,45.72153082775252 L 141.97731643504636,43.875367028583554 L 146.04286165991394,42.42069168686294 L 150.23141329040064,41.371514121338095 L 154.5026332846096,40.73793848550346 L 155.8385500187047,40.672309104802935 L 155.8153874591103,40.526066459080184 L 155.96221791022484,39.599015475955326 L 156.38833647598545,38.76271070220279 L 157.05203170223288,38.099015475955085 L 157.88833647598545,37.67289691019469 L 158.50000000000003,37.57601892527654 L 158.8153874591103,37.526066459079885 L 159.7424384422351,37.672896910194666 L 160.57874321598766,38.099015475955255 L 161.2424384422351,38.762710702202625 L 161.66855700799573,39.59901547595537 L 161.81538745911027,40.52606645908017 L 161.79222489951584,40.67230910480314 L 163.12814163361094,40.737938485503435 L 167.39936162781993,41.37151412133815 L 171.58791325830663,42.4206916868629 L 175.65345848317423,43.87536702858349 L 179.5568438794542,45.721530827752474 L 183.26047771197275,47.94140351776808 L 186.72869196231068,50.513606511119804 L 189.92808583131838,53.41336808687211 L 192.8278474070707,56.61276195587966 L 195.4000504004223,60.08097620621767 L 197.6199230904379,63.784610038736105 L 199.4660868896069,67.68799543501605 L 200.92076223132744,71.75354065988381 L 201.9699397968524,75.94209229037044 L 202.60351543268695,80.21331228457937 L 202.81538745911027,84.52606645907994 L 202.60351543268695,88.8388206335805 L 201.9699397968524,93.1100406277894 L 200.92076223132753,97.29859225827606 L 199.4660868896069,101.36413748314375 L 197.61992309043794,105.2675228794238 L 195.4000504004223,108.97115671194241 L 192.82784740707072,112.43937096228032 L 189.9280858313184,115.6387648312879 L 186.72869196231073,118.53852640704025 L 183.2604777119728,121.11072940039178 L 179.5568438794542,123.33060209040744 L 175.65345848317426,125.17676588957652 L 171.58791325830663,126.63144123129699 L 167.39936162781993,127.68061879682213 L 163.12814163361094,128.31419443265668 L 161.79222489951587,128.3798238133569 L 161.81538745911027,128.52606645908003 L 161.6685570079957,129.45311744220476 L 161.2424384422351,130.2894222159573 L 160.57874321598769,130.95311744220476 L 159.7424384422351,131.37923600796535 L 158.8153874591103,131.5260664590799 L 158.50000000000003,131.47611399288343 "
  />
  <path id="face0-interior"
 style="fill:none;stroke:#FF0000;stroke-width:1;stroke-miterlimit:4;stroke-dasharray:none;stroke-linejoin:round;stroke-linecap:round"
        d="M 10.0,16.999999999999897 M 10.000000000000018,299.9999999999999 M 10.23851921597656,301.8117333157175 M 10.937822173508934,303.49999999999994 M 12.050252531694149,304.94974746830565 M 13.500000000000007,306.06217782649094 M 15.18826668428236,306.7614807840233 M 17.000000000000004,306.9999999999999 M 300.0000000000001,306.99999999999994 M 301.81173331571773,306.7614807840234 M 303.5,306.06217782649105 M 304.9497474683059,304.9497474683058 M 306.0621778264911,303.49999999999994 M 306.76148078402355,301.8117333157175 M 307.00000000000006,299.99999999999994 M 306.99999999999994,16.999999999999897 M 306.7614807840234,15.188266684287807 M 306.062177826491,13.500000000000494 M 304.9497474683058,12.050252531695978 M 303.5,10.937822173507971 M 301.8117333157177,10.23851921597658 M 300.0000000000001,10.000000000001581 M 17.0,10.0 M 15.188266684282356,10.238519215976494 M 13.500000000000002,10.937822173508861 M 12.050252531694168,12.050252531694142 M 10.93782217350893,13.500000000000016 M 10.238519215976522,15.188266684282294 M 284.34666621830087,278.8353142970385 M 284.5,279.9999999999999 M 284.34666621830087,281.16468570296115 M 283.89711431702995,282.2499999999998 M 283.18198051533955,283.18198051533943 M 282.25000000000006,283.89711431702983 M 281.1646857029614,284.34666621830064 M 280.00000000000006,284.49999999999994 M 278.8353142970386,284.34666621830064 M 277.75,283.89711431702983 M 276.81801948466057,283.18198051533943 M 276.10288568297005,282.2499999999999 M 275.65333378169925,281.16468570296126 M 275.5,279.9999999999999 M 275.65333378169925,278.83531429703856 M 276.10288568297005,277.7499999999999 M 276.81801948466057,276.8180194846604 M 277.75,276.1028856829699 M 278.8353142970386,275.65333378169913 M 280.00000000000006,275.49999999999983 M 281.1646857029614,275.6533337816991 M 282.25,276.1028856829698 M 283.1819805153396,276.8180194846604 M 283.89711431702995,277.7499999999999 M 284.34666621830087,35.835314297038884 M 284.5,36.99999999999982 M 284.34666621830087,38.16468570296151 M 283.89711431702995,39.249999999999886 M 283.18198051533943,40.181980515339276 M 282.25,40.897114317029775 M 281.1646857029614,41.346666218301095 M 280.00000000000006,41.49999999999976 M 278.8353142970386,41.34666621830097 M 277.75,40.89711431703003 M 276.8180194846606,40.18198051533935 M 276.10288568297005,39.24999999999966 M 275.65333378169925,38.16468570296116 M 275.5,36.99999999999984 M 275.65333378169925,35.835314297039226 M 276.10288568297005,34.75000000000012 M 276.81801948466057,33.81801948466027 M 277.75,33.10288568297011 M 278.8353142970386,32.65333378169906 M 280.00000000000006,32.49999999999987 M 281.1646857029614,32.65333378169905 M 282.25,33.1028856829697 M 283.18198051533943,33.81801948466062 M 283.89711431702995,34.750000000000426 M 299.99999999999994,221.99999999999986 M 293.0,221.99999999999991 M 293.0,193.9999999999999 M 300.0,193.99999999999994 M 299.99999999999994,94.99999999999977 M 299.99999999999994,122.99999999999989 M 293.0,122.99999999999986 M 293.0,94.99999999999989 M 122.99999999999997,16.999999999999897 M 122.99999999999997,23.999999999999947 M 94.99999999999994,23.999999999999986 M 94.99999999999994,16.999999999999897 M 221.99999999999986,16.999999999999897 M 221.99999999999986,23.9999999999992 M 194.0,23.99999999999922 M 193.99999999999997,16.999999999999897 M 95.00000000000006,300.0 M 95.00000000000011,293.0 M 123.00000000000009,293.0 M 123.00000000000009,300.00000000000006 M 221.99999999999994,299.99999999999994 M 194.0000000000001,299.99999999999994 M 194.00000000000014,293.0 M 221.99999999999994,293.0 M 16.999999999999954,94.99999999999989 M 23.99999999999996,94.99999999999989 M 23.999999999999957,122.99999999999996 M 16.99999999999997,122.99999999999997 M 16.99999999999998,222.00000000000009 M 16.99999999999997,194.0 M 23.999999999999993,194.0 M 24.00000000000001,222.00000000000009 M 32.6533337816992,38.04573981501321 M 32.5,36.88105411205189 M 32.6533337816992,35.716368409090485 M 33.10288568297003,34.631054112051864 M 33.81801948466054,33.6990735967124 M 34.75000000000001,32.98393979502187 M 35.83531429703866,32.53438789375109 M 37.0,32.38105411205183 M 38.16468570296134,32.53438789375108 M 39.25,32.983939795021875 M 40.18198051533946,33.699073596712395 M 40.897114317029974,34.63105411205187 M 41.34666621830081,35.71636840909049 M 41.50000000000001,36.881054112051885 M 41.346666218300804,38.0457398150132 M 40.897114317029974,39.13105411205183 M 40.18198051533946,40.063034627391346 M 39.25,40.77816842908187 M 38.16468570296134,41.22772033035274 M 37.0,41.3810541120519 M 35.83531429703866,41.227720330352746 M 34.75,40.77816842908187 M 33.81801948466054,40.063034627391346 M 33.10288568297003,39.13105411205183 M 32.653333781699175,281.16468570296115 M 32.49999999999997,279.9999999999999 M 32.65333378169915,278.8353142970385 M 33.10288568296998,277.7499999999999 M 33.818019484660496,276.8180194846604 M 34.749999999999986,276.1028856829699 M 35.83531429703867,275.6533337816991 M 36.99999999999999,275.4999999999998 M 38.16468570296133,275.6533337816991 M 39.25,276.1028856829699 M 40.1819805153395,276.81801948466034 M 40.89711431703001,277.74999999999983 M 41.3466662183008,278.8353142970385 M 41.500000000000014,279.99999999999994 M 41.34666621830083,281.1646857029612 M 40.897114317029995,282.24999999999983 M 40.181980515339475,283.1819805153394 M 39.24999999999998,283.8971143170298 M 38.16468570296137,284.3466662183007 M 37.0,284.4999999999999 M 35.83531429703868,284.3466662183007 M 34.749999999999986,283.89711431702983 M 33.81801948466051,283.1819805153394 M 33.10288568297,282.24999999999994 M 129.00000000000003,158.49999999999966 M 128.7881279735767,162.81275417450047 M 128.15455233774216,167.0839741687095 M 127.10537477221723,171.2725257991961 M 125.65069943049662,175.33807102406382 M 123.80453563132767,179.24145642034358 M 121.58466294131205,182.94509025286223 M 119.01245994796048,186.41330450320012 M 116.11269837220811,189.61269837220783 M 112.91330450320046,192.5124599479602 M 109.44509025286251,195.08466294131173 M 105.74145642034395,197.3045356313274 M 101.83807102406399,199.15069943049645 M 97.77252579919636,200.605374772217 M 93.58397416870969,201.6545523377419 M 89.31275417450067,202.2881279735765 M 87.97683744040557,202.3537573542768 M 88.00000000000003,202.4999999999998 M 87.85316954888546,203.4270509831246 M 87.42705098312487,204.26335575687716 M 86.76335575687744,204.92705098312462 M 85.92705098312484,205.3531695488852 M 85.00000000000006,205.49999999999972 M 84.07294901687519,205.3531695488852 M 83.23664424312261,204.92705098312456 M 82.57294901687519,204.26335575687713 M 82.1468304511146,203.4270509831246 M 82.00000000000003,202.49999999999983 M 82.02316255959445,202.35375735427684 M 80.68724582549933,202.28812797357648 M 76.4160258312904,201.6545523377419 M 72.22747420080367,200.60537477221698 M 68.16192897593609,199.15069943049645 M 64.2585435796561,197.30453563132744 M 60.55490974713749,195.08466294131176 M 57.08669549679961,192.51245994796022 M 53.88730162779193,189.61269837220783 M 50.987540052039584,186.41330450320015 M 48.41533705868803,182.94509025286223 M 46.19546436867241,179.24145642034358 M 44.3493005695034,175.33807102406365 M 42.89462522778282,171.2725257991961 M 41.845447662257875,167.08397416870943 M 41.21187202642336,162.81275417450044 M 41.000000000000014,158.49999999999966 M 41.211872026423364,154.18724582549902 M 41.845447662257854,149.91602583128997 M 42.89462522778284,145.7274742008033 M 44.3493005695034,141.66192897593578 M 46.195464368672376,137.75854357965574 M 48.415337058688,134.05490974713726 M 50.987540052039584,130.5866954967994 M 53.887301627791906,127.38730162779163 M 57.0866954967996,124.48754005203925 M 60.55490974713752,121.9153370586877 M 64.2585435796561,119.69546436867192 M 68.16192897593606,117.84930056950296 M 72.22747420080367,116.39462522778234 M 76.41602583129034,115.34544766225747 M 80.68724582549933,114.71187202642292 M 82.02316255959443,114.6462426457225 M 82.00000000000003,114.49999999999957 M 82.14683045111457,113.57294901687476 M 82.57294901687519,112.73664424312216 M 83.23664424312261,112.07294901687474 M 84.07294901687519,111.64683045111417 M 85.00000000000003,111.4999999999996 M 85.92705098312484,111.64683045111418 M 86.76335575687742,112.07294901687476 M 87.42705098312484,112.73664424312219 M 87.85316954888546,113.57294901687474 M 88.00000000000003,114.49999999999959 M 87.9768374404056,114.64624264572252 M 89.31275417450067,114.71187202642292 M 93.58397416870969,115.34544766225747 M 97.77252579919636,116.39462522778236 M 101.83807102406396,117.84930056950296 M 105.74145642034392,119.69546436867189 M 109.44509025286251,121.91533705868771 M 112.91330450320041,124.48754005203922 M 116.11269837220814,127.38730162779162 M 119.01245994796045,130.58669549679936 M 121.58466294131199,134.05490974713726 M 123.80453563132764,137.75854357965576 M 125.65069943049664,141.6619289759356 M 127.10537477221723,145.72747420080327 M 128.15455233774216,149.91602583129 M 128.7881279735767,154.187245825499 M 188.00000000000003,158.49999999999991 M 188.21187202642338,154.18724582549905 M 188.8454476622579,149.91602583128994 M 189.89462522778288,145.72747420080333 M 191.34930056950344,141.6619289759358 M 193.19546436867242,137.7585435796559 M 195.41533705868804,134.0549097471372 M 197.9875400520396,130.58669549679945 M 200.88730162779197,127.3873016277917 M 204.08669549679962,124.48754005203922 M 207.55490974713746,121.91533705868774 M 211.25854357965616,119.69546436867209 M 215.16192897593595,117.84930056950293 M 219.22747420080356,116.39462522778257 M 223.4160258312903,115.34544766225738 M 227.68724582549922,114.71187202642287 M 229.02316255959434,114.64624264572244 M 228.99999999999997,114.49999999999963 M 229.1468304511145,113.5729490168747 M 229.57294901687513,112.73664424312211 M 230.2366442431225,112.07294901687474 M 231.07294901687507,111.64683045111414 M 231.99999999999991,111.49999999999959 M 232.9270509831248,111.64683045111427 M 233.76335575687736,112.07294901687473 M 234.42705098312481,112.73664424312214 M 234.8531695488854,113.57294901687466 M 235.00000000000006,114.49999999999957 M 234.9768374404055,114.6462426457225 M 236.31275417450064,114.71187202642287 M 240.58397416870963,115.34544766225747 M 244.7725257991963,116.39462522778234 M 248.8380710240639,117.84930056950299 M 252.74145642034384,119.69546436867205 M 256.4450902528624,121.91533705868774 M 259.91330450320027,124.48754005203925 M 263.112698372208,127.38730162779166 M 266.01245994796034,130.58669549679945 M 268.584662941312,134.0549097471373 M 270.80453563132755,137.75854357965596 M 272.65069943049656,141.66192897593578 M 274.10537477221715,145.72747420080333 M 275.1545523377421,149.91602583128994 M 275.7881279735767,154.18724582549905 M 275.99999999999994,158.4999999999999 M 275.78812797357665,162.81275417450053 M 275.1545523377421,167.08397416870946 M 274.1053747722173,171.27252579919605 M 272.65069943049656,175.33807102406388 M 270.80453563132755,179.24145642034378 M 268.584662941312,182.94509025286231 M 266.01245994796045,186.41330450320018 M 263.112698372208,189.61269837220783 M 259.9133045032004,192.51245994796017 M 256.4450902528624,195.08466294131173 M 252.74145642034384,197.3045356313274 M 248.8380710240639,199.15069943049642 M 244.7725257991963,200.605374772217 M 240.58397416870963,201.65455233774188 M 236.31275417450064,202.28812797357645 M 234.9768374404055,202.35375735427692 M 234.99999999999997,202.4999999999998 M 234.8531695488854,203.4270509831247 M 234.42705098312481,204.26335575687725 M 233.76335575687736,204.92705098312462 M 232.9270509831248,205.35316954888532 M 231.99999999999991,205.49999999999986 M 231.07294901687516,205.3531695488852 M 230.2366442431225,204.9270509831247 M 229.57294901687513,204.26335575687727 M 229.1468304511145,203.4270509831247 M 228.99999999999997,202.49999999999983 M 229.02316255959434,202.35375735427695 M 227.6872458254993,202.28812797357654 M 223.4160258312904,201.6545523377419 M 219.22747420080356,200.60537477221703 M 215.16192897593595,199.15069943049645 M 211.2585435796561,197.3045356313274 M 207.55490974713746,195.0846629413117 M 204.08669549679962,192.51245994796017 M 200.88730162779197,189.61269837220786 M 197.9875400520396,186.41330450320018 M 195.41533705868807,182.94509025286223 M 193.19546436867242,179.2414564203438 M 191.34930056950344,175.33807102406362 M 189.89462522778288,171.2725257991962 M 188.8454476622579,167.08397416870946 M 188.21187202642338,162.8127541745004 M 158.50000000000006,184.99999999999977 M 159.42705098312493,185.14683045111434 M 160.2633557568775,185.57294901687493 M 160.9270509831249,186.23664424312219 M 161.35316954888552,187.07294901687493 M 161.50000000000006,187.9999999999997 M 161.47683744040563,188.14624264572277 M 162.81275417450072,188.211872026423 M 167.0839741687097,188.84544766225756 M 171.2725257991964,189.89462522778257 M 175.33807102406405,191.3493005695031 M 179.24145642034398,193.19546436867202 M 182.9450902528625,195.41533705868773 M 186.41330450320044,197.9875400520393 M 189.61269837220814,200.88730162779163 M 192.51245994796045,204.08669549679934 M 195.08466294131208,207.55490974713723 M 197.3045356313277,211.25854357965582 M 199.15069943049667,215.1619289759358 M 200.60537477221726,219.22747420080333 M 201.6545523377422,223.41602583128997 M 202.28812797357676,227.68724582549905 M 202.50000000000003,231.99999999999986 M 202.28812797357676,236.31275417450047 M 201.6545523377422,240.58397416870943 M 200.60537477221726,244.77252579919613 M 199.15069943049667,248.8380710240638 M 197.30453563132767,252.74145642034372 M 195.08466294131208,256.4450902528622 M 192.5124599479605,259.91330450320015 M 189.61269837220814,263.1126983722078 M 186.41330450320052,266.0124599479601 M 182.94509025286254,268.58466294131176 M 179.24145642034398,270.8045356313274 M 175.33807102406405,272.6506994304964 M 171.27252579919647,274.10537477221703 M 167.08397416870966,275.15455233774185 M 162.81275417450072,275.78812797357637 M 161.47683744040563,275.8537573542768 M 161.50000000000006,275.9999999999997 M 161.35316954888552,276.92705098312456 M 160.9270509831249,277.7633557568772 M 160.26335575687747,278.4270509831246 M 159.42705098312493,278.8531695488852 M 158.50000000000006,278.99999999999983 M 157.57294901687519,278.8531695488852 M 156.73664424312264,278.4270509831246 M 156.07294901687519,277.76335575687716 M 155.64683045111462,276.9270509831246 M 155.50000000000003,275.9999999999998 M 155.52316255959454,275.85375735427675 M 154.18724582549942,275.78812797357637 M 149.91602583129043,275.1545523377419 M 145.7274742008037,274.1053747722169 M 141.6619289759361,272.65069943049633 M 137.75854357965613,270.80453563132744 M 134.05490974713757,268.58466294131176 M 130.58669549679965,266.0124599479602 M 127.387301627792,263.1126983722078 M 124.4875400520396,259.91330450320015 M 121.9153370586881,256.4450902528622 M 119.69546436867242,252.74145642034372 M 117.84930056950341,248.83807102406368 M 116.39462522778285,244.7725257991961 M 115.34544766225795,240.58397416870937 M 114.71187202642338,236.3127541745004 M 114.50000000000009,231.99999999999977 M 114.7118720264234,227.68724582549902 M 115.34544766225793,223.4160258312901 M 116.39462522778288,219.22747420080333 M 117.84930056950344,215.16192897593587 M 119.69546436867242,211.25854357965574 M 121.91533705868807,207.55490974713717 M 124.48754005203963,204.08669549679934 M 127.387301627792,200.88730162779163 M 130.58669549679962,197.9875400520393 M 134.05490974713754,195.41533705868775 M 137.75854357965616,193.19546436867216 M 141.66192897593606,191.34930056950307 M 145.72747420080367,189.89462522778257 M 149.9160258312904,188.8454476622575 M 154.18724582549936,188.21187202642295 M 155.52316255959448,188.14624264572274 M 155.50000000000006,187.99999999999963 M 155.64683045111462,187.07294901687496 M 156.0729490168752,186.23664424312224 M 156.73664424312264,185.57294901687496 M 157.5729490168752,185.14683045111434 M 158.50000000000003,131.47611399288343 M 157.88833647598545,131.37923600796537 M 157.05203170223288,130.95311744220473 M 156.38833647598545,130.2894222159573 M 155.9622179102248,129.45311744220476 M 155.8153874591103,128.52606645908003 M 155.8385500187047,128.37982381335692 M 154.50263328460963,128.31419443265662 M 150.23141329040064,127.68061879682209 M 146.04286165991397,126.63144123129695 M 141.97731643504633,125.17676588957656 M 138.07393103876637,123.3306020904074 M 134.37029720624778,121.11072940039183 M 130.9020829559099,118.5385264070403 M 127.70268908690218,115.63876483128797 M 124.80292751114985,112.43937096228024 M 122.23072451779831,108.97115671194241 M 120.01085182778269,105.26752287942372 M 118.16468802861365,101.36413748314372 M 116.7100126868931,97.29859225827612 M 115.66083512136814,93.11004062778949 M 115.02725948553362,88.83882063358067 M 114.81538745911027,84.52606645907994 M 115.02725948553362,80.21331228457942 M 115.66083512136814,75.94209229037038 M 116.7100126868931,71.75354065988378 M 118.16468802861365,67.68799543501608 M 120.01085182778266,63.78461003873616 M 122.23072451779828,60.080976206217684 M 124.80292751114985,56.61276195587976 M 127.70268908690218,53.41336808687207 M 130.9020829559099,50.513606511119846 M 134.37029720624778,47.94140351776807 M 138.07393103876637,45.72153082775252 M 141.97731643504636,43.875367028583554 M 146.04286165991394,42.42069168686294 M 150.23141329040064,41.371514121338095 M 154.5026332846096,40.73793848550346 M 155.8385500187047,40.672309104802935 M 155.8153874591103,40.526066459080184 M 155.96221791022484,39.599015475955326 M 156.38833647598545,38.76271070220279 M 157.05203170223288,38.099015475955085 M 157.88833647598545,37.67289691019469 M 158.50000000000003,37.57601892527654 M 158.8153874591103,37.526066459079885 M 159.7424384422351,37.672896910194666 M 160.57874321598766,38.099015475955255 M 161.2424384422351,38.762710702202625 M 161.66855700799573,39.59901547595537 M 161.81538745911027,40.52606645908017 M 161.79222489951584,40.67230910480314 M 163.12814163361094,40.737938485503435 M 167.39936162781993,41.37151412133815 M 171.58791325830663,42.4206916868629 M 175.65345848317423,43.87536702858349 M 179.5568438794542,45.721530827752474 M 183.26047771197275,47.94140351776808 M 186.72869196231068,50.513606511119804 M 189.92808583131838,53.41336808687211 M 192.8278474070707,56.61276195587966 M 195.4000504004223,60.08097620621767 M 197.6199230904379,63.784610038736105 M 199.4660868896069,67.68799543501605 M 200.92076223132744,71.75354065988381 M 201.9699397968524,75.94209229037044 M 202.60351543268695,80.21331228457937 M 202.81538745911027,84.52606645907994 M 202.60351543268695,88.8388206335805 M 201.9699397968524,93.1100406277894 M 200.92076223132753,97.29859225827606 M 199.4660868896069,101.36413748314375 M 197.61992309043794,105.2675228794238 M 195.4000504004223,108.97115671194241 M 192.82784740707072,112.43937096228032 M 189.9280858313184,115.6387648312879 M 186.72869196231073,118.53852640704025 M 183.2604777119728,121.11072940039178 M 179.5568438794542,123.33060209040744 M 175.65345848317426,125.17676588957652 M 171.58791325830663,126.63144123129699 M 167.39936162781993,127.68061879682213 M 163.12814163361094,128.31419443265668 M 161.79222489951587,128.3798238133569 M 161.81538745911027,128.52606645908003 M 161.6685570079957,129.45311744220476 M 161.2424384422351,130.2894222159573 M 160.57874321598769,130.95311744220476 M 159.7424384422351,131.37923600796535 M 158.8153874591103,131.5260664590799 "
  />
  <path id="face0-interior"
 style="fill:none;stroke:#00FF00;stroke-width:1;stroke-miterlimit:4;stroke-dasharray:none;stroke-linejoin:round;stroke-linecap:round"
        d="M 10.0,16.999999999999897 M 10.000000000000018,299.9999999999999 M 10.23851921597656,301.8117333157175 M 10.937822173508934,303.49999999999994 M 12.050252531694149,304.94974746830565 M 13.500000000000007,306.06217782649094 M 15.18826668428236,306.7614807840233 M 17.000000000000004,306.9999999999999 M 300.0000000000001,306.99999999999994 M 301.81173331571773,306.7614807840234 M 303.5,306.06217782649105 M 304.9497474683059,304.9497474683058 M 306.0621778264911,303.49999999999994 M 306.76148078402355,301.8117333157175 M 307.00000000000006,299.99999999999994 M 306.99999999999994,16.999999999999897 M 306.7614807840234,15.188266684287807 M 306.062177826491,13.500000000000494 M 304.9497474683058,12.050252531695978 M 303.5,10.937822173507971 M 301.8117333157177,10.23851921597658 M 300.0000000000001,10.000000000001581 M 17.0,10.0 M 15.188266684282356,10.238519215976494 M 13.500000000000002,10.937822173508861 M 12.050252531694168,12.050252531694142 M 10.93782217350893,13.500000000000016 M 10.238519215976522,15.188266684282294 M 284.34666621830087,278.8353142970385 M 284.5,279.9999999999999 M 284.34666621830087,281.16468570296115 M 283.89711431702995,282.2499999999998 M 283.18198051533955,283.18198051533943 M 282.25000000000006,283.89711431702983 M 281.1646857029614,284.34666621830064 M 280.00000000000006,284.49999999999994 M 278.8353142970386,284.34666621830064 M 277.75,283.89711431702983 M 276.81801948466057,283.18198051533943 M 276.10288568297005,282.2499999999999 M 275.65333378169925,281.16468570296126 M 275.5,279.9999999999999 M 275.65333378169925,278.83531429703856 M 276.10288568297005,277.7499999999999 M 276.81801948466057,276.8180194846604 M 277.75,276.1028856829699 M 278.8353142970386,275.65333378169913 M 280.00000000000006,275.49999999999983 M 281.1646857029614,275.6533337816991 M 282.25,276.1028856829698 M 283.1819805153396,276.8180194846604 M 283.89711431702995,277.7499999999999 M 284.34666621830087,35.835314297038884 M 284.5,36.99999999999982 M 284.34666621830087,38.16468570296151 M 283.89711431702995,39.249999999999886 M 283.18198051533943,40.181980515339276 M 282.25,40.897114317029775 M 281.1646857029614,41.346666218301095 M 280.00000000000006,41.49999999999976 M 278.8353142970386,41.34666621830097 M 277.75,40.89711431703003 M 276.8180194846606,40.18198051533935 M 276.10288568297005,39.24999999999966 M 275.65333378169925,38.16468570296116 M 275.5,36.99999999999984 M 275.65333378169925,35.835314297039226 M 276.10288568297005,34.75000000000012 M 276.81801948466057,33.81801948466027 M 277.75,33.10288568297011 M 278.8353142970386,32.65333378169906 M 280.00000000000006,32.49999999999987 M 281.1646857029614,32.65333378169905 M 282.25,33.1028856829697 M 283.18198051533943,33.81801948466062 M 283.89711431702995,34.750000000000426 M 299.99999999999994,221.99999999999986 M 293.0,221.99999999999991 M 293.0,193.9999999999999 M 300.0,193.99999999999994 M 299.99999999999994,94.99999999999977 M 299.99999999999994,122.99999999999989 M 293.0,122.99999999999986 M 293.0,94.99999999999989 M 122.99999999999997,16.999999999999897 M 122.99999999999997,23.999999999999947 M 94.99999999999994,23.999999999999986 M 94.99999999999994,16.999999999999897 M 221.99999999999986,16.999999999999897 M 221.99999999999986,23.9999999999992 M 194.0,23.99999999999922 M 193.99999999999997,16.999999999999897 M 95.00000000000006,300.0 M 95.00000000000011,293.0 M 123.00000000000009,293.0 M 123.00000000000009,300.00000000000006 M 221.99999999999994,299.99999999999994 M 194.0000000000001,299.99999999999994 M 194.00000000000014,293.0 M 221.99999999999994,293.0 M 16.999999999999954,94.99999999999989 M 23.99999999999996,94.99999999999989 M 23.999999999999957,122.99999999999996 M 16.99999999999997,122.99999999999997 M 16.99999999999998,222.00000000000009 M 16.99999999999997,194.0 M 23.999999999999993,194.0 M 24.00000000000001,222.00000000000009 M 32.6533337816992,38.04573981501321 M 32.5,36.88105411205189 M 32.6533337816992,35.716368409090485 M 33.10288568297003,34.631054112051864 M 33.81801948466054,33.6990735967124 M 34.75000000000001,32.98393979502187 M 35.83531429703866,32.53438789375109 M 37.0,32.38105411205183 M 38.16468570296134,32.53438789375108 M 39.25,32.983939795021875 M 40.18198051533946,33.699073596712395 M 40.897114317029974,34.63105411205187 M 41.34666621830081,35.71636840909049 M 41.50000000000001,36.881054112051885 M 41.346666218300804,38.0457398150132 M 40.897114317029974,39.13105411205183 M 40.18198051533946,40.063034627391346 M 39.25,40.77816842908187 M 38.16468570296134,41.22772033035274 M 37.0,41.3810541120519 M 35.83531429703866,41.227720330352746 M 34.75,40.77816842908187 M 33.81801948466054,40.063034627391346 M 33.10288568297003,39.13105411205183 M 32.653333781699175,281.16468570296115 M 32.49999999999997,279.9999999999999 M 32.65333378169915,278.8353142970385 M 33.10288568296998,277.7499999999999 M 33.818019484660496,276.8180194846604 M 34.749999999999986,276.1028856829699 M 35.83531429703867,275.6533337816991 M 36.99999999999999,275.4999999999998 M 38.16468570296133,275.6533337816991 M 39.25,276.1028856829699 M 40.1819805153395,276.81801948466034 M 40.89711431703001,277.74999999999983 M 41.3466662183008,278.8353142970385 M 41.500000000000014,279.99999999999994 M 41.34666621830083,281.1646857029612 M 40.897114317029995,282.24999999999983 M 40.181980515339475,283.1819805153394 M 39.24999999999998,283.8971143170298 M 38.16468570296137,284.3466662183007 M 37.0,284.4999999999999 M 35.83531429703868,284.3466662183007 M 34.749999999999986,283.89711431702983 M 33.81801948466051,283.1819805153394 M 33.10288568297,282.24999999999994 M 129.00000000000003,158.49999999999966 M 128.7881279735767,162.81275417450047 M 128.15455233774216,167.0839741687095 M 127.10537477221723,171.2725257991961 M 125.65069943049662,175.33807102406382 M 123.80453563132767,179.24145642034358 M 121.58466294131205,182.94509025286223 M 119.01245994796048,186.41330450320012 M 116.11269837220811,189.61269837220783 M 112.91330450320046,192.5124599479602 M 109.44509025286251,195.08466294131173 M 105.74145642034395,197.3045356313274 M 101.83807102406399,199.15069943049645 M 97.77252579919636,200.605374772217 M 93.58397416870969,201.6545523377419 M 89.31275417450067,202.2881279735765 M 87.97683744040557,202.3537573542768 M 88.00000000000003,202.4999999999998 M 87.85316954888546,203.4270509831246 M 87.42705098312487,204.26335575687716 M 86.76335575687744,204.92705098312462 M 85.92705098312484,205.3531695488852 M 85.00000000000006,205.49999999999972 M 84.07294901687519,205.3531695488852 M 83.23664424312261,204.92705098312456 M 82.57294901687519,204.26335575687713 M 82.1468304511146,203.4270509831246 M 82.00000000000003,202.49999999999983 M 82.02316255959445,202.35375735427684 M 80.68724582549933,202.28812797357648 M 76.4160258312904,201.6545523377419 M 72.22747420080367,200.60537477221698 M 68.16192897593609,199.15069943049645 M 64.2585435796561,197.30453563132744 M 60.55490974713749,195.08466294131176 M 57.08669549679961,192.51245994796022 M 53.88730162779193,189.61269837220783 M 50.987540052039584,186.41330450320015 M 48.41533705868803,182.94509025286223 M 46.19546436867241,179.24145642034358 M 44.3493005695034,175.33807102406365 M 42.89462522778282,171.2725257991961 M 41.845447662257875,167.08397416870943 M 41.21187202642336,162.81275417450044 M 41.000000000000014,158.49999999999966 M 41.211872026423364,154.18724582549902 M 41.845447662257854,149.91602583128997 M 42.89462522778284,145.7274742008033 M 44.3493005695034,141.66192897593578 M 46.195464368672376,137.75854357965574 M 48.415337058688,134.05490974713726 M 50.987540052039584,130.5866954967994 M 53.887301627791906,127.38730162779163 M 57.0866954967996,124.48754005203925 M 60.55490974713752,121.9153370586877 M 64.2585435796561,119.69546436867192 M 68.16192897593606,117.84930056950296 M 72.22747420080367,116.39462522778234 M 76.41602583129034,115.34544766225747 M 80.68724582549933,114.71187202642292 M 82.02316255959443,114.6462426457225 M 82.00000000000003,114.49999999999957 M 82.14683045111457,113.57294901687476 M 82.57294901687519,112.73664424312216 M 83.23664424312261,112.07294901687474 M 84.07294901687519,111.64683045111417 M 85.00000000000003,111.4999999999996 M 85.92705098312484,111.64683045111418 M 86.76335575687742,112.07294901687476 M 87.42705098312484,112.73664424312219 M 87.85316954888546,113.57294901687474 M 88.00000000000003,114.49999999999959 M 87.9768374404056,114.64624264572252 M 89.31275417450067,114.71187202642292 M 93.58397416870969,115.34544766225747 M 97.77252579919636,116.39462522778236 M 101.83807102406396,117.84930056950296 M 105.74145642034392,119.69546436867189 M 109.44509025286251,121.91533705868771 M 112.91330450320041,124.48754005203922 M 116.11269837220814,127.38730162779162 M 119.01245994796045,130.58669549679936 M 121.58466294131199,134.05490974713726 M 123.80453563132764,137.75854357965576 M 125.65069943049664,141.6619289759356 M 127.10537477221723,145.72747420080327 M 128.15455233774216,149.91602583129 M 128.7881279735767,154.187245825499 M 188.00000000000003,158.49999999999991 M 188.21187202642338,154.18724582549905 M 188.8454476622579,149.91602583128994 M 189.89462522778288,145.72747420080333 M 191.34930056950344,141.6619289759358 M 193.19546436867242,137.7585435796559 M 195.41533705868804,134.0549097471372 M 197.9875400520396,130.58669549679945 M 200.88730162779197,127.3873016277917 M 204.08669549679962,124.48754005203922 M 207.55490974713746,121.91533705868774 M 211.25854357965616,119.69546436867209 M 215.16192897593595,117.84930056950293 M 219.22747420080356,116.39462522778257 M 223.4160258312903,115.34544766225738 M 227.68724582549922,114.71187202642287 M 229.02316255959434,114.64624264572244 M 228.99999999999997,114.49999999999963 M 229.1468304511145,113.5729490168747 M 229.57294901687513,112.73664424312211 M 230.2366442431225,112.07294901687474 M 231.07294901687507,111.64683045111414 M 231.99999999999991,111.49999999999959 M 232.9270509831248,111.64683045111427 M 233.76335575687736,112.07294901687473 M 234.42705098312481,112.73664424312214 M 234.8531695488854,113.57294901687466 M 235.00000000000006,114.49999999999957 M 234.9768374404055,114.6462426457225 M 236.31275417450064,114.71187202642287 M 240.58397416870963,115.34544766225747 M 244.7725257991963,116.39462522778234 M 248.8380710240639,117.84930056950299 M 252.74145642034384,119.69546436867205 M 256.4450902528624,121.91533705868774 M 259.91330450320027,124.48754005203925 M 263.112698372208,127.38730162779166 M 266.01245994796034,130.58669549679945 M 268.584662941312,134.0549097471373 M 270.80453563132755,137.75854357965596 M 272.65069943049656,141.66192897593578 M 274.10537477221715,145.72747420080333 M 275.1545523377421,149.91602583128994 M 275.7881279735767,154.18724582549905 M 275.99999999999994,158.4999999999999 M 275.78812797357665,162.81275417450053 M 275.1545523377421,167.08397416870946 M 274.1053747722173,171.27252579919605 M 272.65069943049656,175.33807102406388 M 270.80453563132755,179.24145642034378 M 268.584662941312,182.94509025286231 M 266.01245994796045,186.41330450320018 M 263.112698372208,189.61269837220783 M 259.9133045032004,192.51245994796017 M 256.4450902528624,195.08466294131173 M 252.74145642034384,197.3045356313274 M 248.8380710240639,199.15069943049642 M 244.7725257991963,200.605374772217 M 240.58397416870963,201.65455233774188 M 236.31275417450064,202.28812797357645 M 234.9768374404055,202.35375735427692 M 234.99999999999997,202.4999999999998 M 234.8531695488854,203.4270509831247 M 234.42705098312481,204.26335575687725 M 233.76335575687736,204.92705098312462 M 232.9270509831248,205.35316954888532 M 231.99999999999991,205.49999999999986 M 231.07294901687516,205.3531695488852 M 230.2366442431225,204.9270509831247 M 229.57294901687513,204.26335575687727 M 229.1468304511145,203.4270509831247 M 228.99999999999997,202.49999999999983 M 229.02316255959434,202.35375735427695 M 227.6872458254993,202.28812797357654 M 223.4160258312904,201.6545523377419 M 219.22747420080356,200.60537477221703 M 215.16192897593595,199.15069943049645 M 211.2585435796561,197.3045356313274 M 207.55490974713746,195.0846629413117 M 204.08669549679962,192.51245994796017 M 200.88730162779197,189.61269837220786 M 197.9875400520396,186.41330450320018 M 195.41533705868807,182.94509025286223 M 193.19546436867242,179.2414564203438 M 191.34930056950344,175.33807102406362 M 189.89462522778288,171.2725257991962 M 188.8454476622579,167.08397416870946 M 188.21187202642338,162.8127541745004 M 158.50000000000006,184.99999999999977 M 159.42705098312493,185.14683045111434 M 160.2633557568775,185.57294901687493 M 160.9270509831249,186.23664424312219 M 161.35316954888552,187.07294901687493 M 161.50000000000006,187.9999999999997 M 161.47683744040563,188.14624264572277 M 162.81275417450072,188.211872026423 M 167.0839741687097,188.84544766225756 M 171.2725257991964,189.89462522778257 M 175.33807102406405,191.3493005695031 M 179.24145642034398,193.19546436867202 M 182.9450902528625,195.41533705868773 M 186.41330450320044,197.9875400520393 M 189.61269837220814,200.88730162779163 M 192.51245994796045,204.08669549679934 M 195.08466294131208,207.55490974713723 M 197.3045356313277,211.25854357965582 M 199.15069943049667,215.1619289759358 M 200.60537477221726,219.22747420080333 M 201.6545523377422,223.41602583128997 M 202.28812797357676,227.68724582549905 M 202.50000000000003,231.99999999999986 M 202.28812797357676,236.31275417450047 M 201.6545523377422,240.58397416870943 M 200.60537477221726,244.77252579919613 M 199.15069943049667,248.8380710240638 M 197.30453563132767,252.74145642034372 M 195.08466294131208,256.4450902528622 M 192.5124599479605,259.91330450320015 M 189.61269837220814,263.1126983722078 M 186.41330450320052,266.0124599479601 M 182.94509025286254,268.58466294131176 M 179.24145642034398,270.8045356313274 M 175.33807102406405,272.6506994304964 M 171.27252579919647,274.10537477221703 M 167.08397416870966,275.15455233774185 M 162.81275417450072,275.78812797357637 M 161.47683744040563,275.8537573542768 M 161.50000000000006,275.9999999999997 M 161.35316954888552,276.92705098312456 M 160.9270509831249,277.7633557568772 M 160.26335575687747,278.4270509831246 M 159.42705098312493,278.8531695488852 M 158.50000000000006,278.99999999999983 M 157.57294901687519,278.8531695488852 M 156.73664424312264,278.4270509831246 M 156.07294901687519,277.76335575687716 M 155.64683045111462,276.9270509831246 M 155.50000000000003,275.9999999999998 M 155.52316255959454,275.85375735427675 M 154.18724582549942,275.78812797357637 M 149.91602583129043,275.1545523377419 M 145.7274742008037,274.1053747722169 M 141.6619289759361,272.65069943049633 M 137.75854357965613,270.80453563132744 M 134.05490974713757,268.58466294131176 M 130.58669549679965,266.0124599479602 M 127.387301627792,263.1126983722078 M 124.4875400520396,259.91330450320015 M 121.9153370586881,256.4450902528622 M 119.69546436867242,252.74145642034372 M 117.84930056950341,248.83807102406368 M 116.39462522778285,244.7725257991961 M 115.34544766225795,240.58397416870937 M 114.71187202642338,236.3127541745004 M 114.50000000000009,231.99999999999977 M 114.7118720264234,227.68724582549902 M 115.34544766225793,223.4160258312901 M 116.39462522778288,219.22747420080333 M 117.84930056950344,215.16192897593587 M 119.69546436867242,211.25854357965574 M 121.91533705868807,207.55490974713717 M 124.48754005203963,204.08669549679934 M 127.387301627792,200.88730162779163 M 130.58669549679962,197.9875400520393 M 134.05490974713754,195.41533705868775 M 137.75854357965616,193.19546436867216 M 141.66192897593606,191.34930056950307 M 145.72747420080367,189.89462522778257 M 149.9160258312904,188.8454476622575 M 154.18724582549936,188.21187202642295 M 155.52316255959448,188.14624264572274 M 155.50000000000006,187.99999999999963 M 155.64683045111462,187.07294901687496 M 156.0729490168752,186.23664424312224 M 156.73664424312264,185.57294901687496 M 157.5729490168752,185.14683045111434 M 158.50000000000003,131.47611399288343 M 157.88833647598545,131.37923600796537 M 157.05203170223288,130.95311744220473 M 156.38833647598545,130.2894222159573 M 155.9622179102248,129.45311744220476 M 155.8153874591103,128.52606645908003 M 155.8385500187047,128.37982381335692 M 154.50263328460963,128.31419443265662 M 150.23141329040064,127.68061879682209 M 146.04286165991397,126.63144123129695 M 141.97731643504633,125.17676588957656 M 138.07393103876637,123.3306020904074 M 134.37029720624778,121.11072940039183 M 130.9020829559099,118.5385264070403 M 127.70268908690218,115.63876483128797 M 124.80292751114985,112.43937096228024 M 122.23072451779831,108.97115671194241 M 120.01085182778269,105.26752287942372 M 118.16468802861365,101.36413748314372 M 116.7100126868931,97.29859225827612 M 115.66083512136814,93.11004062778949 M 115.02725948553362,88.83882063358067 M 114.81538745911027,84.52606645907994 M 115.02725948553362,80.21331228457942 M 115.66083512136814,75.94209229037038 M 116.7100126868931,71.75354065988378 M 118.16468802861365,67.68799543501608 M 120.01085182778266,63.78461003873616 M 122.23072451779828,60.080976206217684 M 124.80292751114985,56.61276195587976 M 127.70268908690218,53.41336808687207 M 130.9020829559099,50.513606511119846 M 134.37029720624778,47.94140351776807 M 138.07393103876637,45.72153082775252 M 141.97731643504636,43.875367028583554 M 146.04286165991394,42.42069168686294 M 150.23141329040064,41.371514121338095 M 154.5026332846096,40.73793848550346 M 155.8385500187047,40.672309104802935 M 155.8153874591103,40.526066459080184 M 155.96221791022484,39.599015475955326 M 156.38833647598545,38.76271070220279 M 157.05203170223288,38.099015475955085 M 157.88833647598545,37.67289691019469 M 158.50000000000003,37.57601892527654 M 158.8153874591103,37.526066459079885 M 159.7424384422351,37.672896910194666 M 160.57874321598766,38.099015475955255 M 161.2424384422351,38.762710702202625 M 161.66855700799573,39.59901547595537 M 161.81538745911027,40.52606645908017 M 161.79222489951584,40.67230910480314 M 163.12814163361094,40.737938485503435 M 167.39936162781993,41.37151412133815 M 171.58791325830663,42.4206916868629 M 175.65345848317423,43.87536702858349 M 179.5568438794542,45.721530827752474 M 183.26047771197275,47.94140351776808 M 186.72869196231068,50.513606511119804 M 189.92808583131838,53.41336808687211 M 192.8278474070707,56.61276195587966 M 195.4000504004223,60.08097620621767 M 197.6199230904379,63.784610038736105 M 199.4660868896069,67.68799543501605 M 200.92076223132744,71.75354065988381 M 201.9699397968524,75.94209229037044 M 202.60351543268695,80.21331228457937 M 202.81538745911027,84.52606645907994 M 202.60351543268695,88.8388206335805 M 201.9699397968524,93.1100406277894 M 200.92076223132753,97.29859225827606 M 199.4660868896069,101.36413748314375 M 197.61992309043794,105.2675228794238 M 195.4000504004223,108.97115671194241 M 192.82784740707072,112.43937096228032 M 189.9280858313184,115.6387648312879 M 186.72869196231073,118.53852640704025 M 183.2604777119728,121.11072940039178 M 179.5568438794542,123.33060209040744 M 175.65345848317426,125.17676588957652 M 171.58791325830663,126.63144123129699 M 167.39936162781993,127.68061879682213 M 163.12814163361094,128.31419443265668 M 161.79222489951587,128.3798238133569 M 161.81538745911027,128.52606645908003 M 161.6685570079957,129.45311744220476 M 161.2424384422351,130.2894222159573 M 160.57874321598769,130.95311744220476 M 159.7424384422351,131.37923600796535 M 158.8153874591103,131.5260664590799 "
  />
</svg>
